<svg width="140" height="42" viewBox="0 0 243 95" fill="none" xmlns="http://www.w3.org/2000/svg">
<path d="M28.6819 48.0745C29.3859 48.0745 30.0259 48.1705 30.6019 48.3625C30.8579 48.4265 31.0819 48.6185 31.2739 48.9385L31.8499 49.4185C31.9779 49.5465 32.1059 49.6745 32.2339 49.8025C32.3619 49.8665 32.4259 49.9625 32.4259 50.0905C32.5539 50.9865 32.1059 52.0105 31.0819 53.1625C29.2899 55.0185 27.5299 57.0345 25.8019 59.2105C24.1379 61.3225 22.7619 63.2105 21.6739 64.8745C22.0579 64.6825 22.6979 64.3945 23.5939 64.0105C24.4899 63.6905 25.5139 63.3385 26.6659 62.9545C27.8179 62.5705 29.0019 62.2185 30.2179 61.8985C31.4339 61.5785 32.5859 61.3865 33.6739 61.3225C34.1859 61.3225 34.6659 61.4505 35.1139 61.7065C35.4339 61.8345 35.7539 62.0905 36.0739 62.4745C36.3939 62.9225 36.6179 63.3065 36.7459 63.6265C37.0019 64.1385 36.7779 64.9385 36.0739 66.0265C34.9859 67.5625 33.7379 69.2585 32.3299 71.1145C30.9219 73.0345 29.5139 74.9865 28.1059 76.9705C26.6979 79.0185 25.3539 81.0665 24.0739 83.1145C22.7939 85.1625 21.7379 87.0825 20.9059 88.8745C22.6979 88.2345 24.5859 87.4345 26.5699 86.4745C28.6179 85.5785 30.6979 84.5865 32.8099 83.4985C34.9219 82.4105 37.0339 81.2905 39.1459 80.1385C41.3219 78.9865 43.4339 77.8665 45.4819 76.7785C45.8659 76.5225 45.8019 76.8745 45.2899 77.8345C44.9059 78.2185 44.4899 78.6665 44.0419 79.1785C43.5939 79.7545 43.1139 80.2665 42.6019 80.7145C42.0259 81.2265 41.5779 81.7385 41.2579 82.2505C40.9379 82.8265 40.4899 83.3385 39.9139 83.7865C38.2499 85.0665 36.4899 86.3145 34.6339 87.5305C32.7779 88.8105 30.4099 90.1865 27.5299 91.6585C26.8259 91.9785 26.1219 92.2665 25.4179 92.5225C24.7779 92.8425 24.1379 93.0985 23.4979 93.2905C22.9859 93.4185 22.4099 93.5785 21.7699 93.7705C21.1299 93.9625 20.6179 94.0585 20.2339 94.0585C19.5299 94.0585 19.2099 93.8025 19.2739 93.2905C19.3379 92.8425 19.2099 92.3625 18.8899 91.8505C18.6979 91.5305 18.3779 91.2105 17.9299 90.8905C17.4819 90.6345 17.2899 90.2185 17.3539 89.6425C17.3539 89.5785 17.4179 89.2905 17.5459 88.7785C17.8659 87.4345 18.5059 85.8025 19.4659 83.8825C20.4899 82.0265 21.5779 80.1065 22.7299 78.1225C23.9459 76.2025 25.1299 74.3785 26.2819 72.6505C27.4339 70.9865 28.3299 69.6745 28.9699 68.7145C26.9219 69.2265 24.7779 69.9305 22.5379 70.8265C20.2979 71.7225 18.3459 72.5545 16.6819 73.3225C16.3619 73.4505 15.9779 73.6105 15.5299 73.8025C15.0819 73.9945 14.7299 74.0905 14.4739 74.0905C13.9619 74.0265 13.7699 73.6105 13.8979 72.8425C14.0259 72.1385 14.1219 71.4665 14.1859 70.8265C14.2499 70.6345 14.2179 70.4105 14.0899 70.1545C14.0259 69.9625 14.0579 69.7385 14.1859 69.4825L14.5699 68.7145C14.6339 68.5865 14.6979 68.4265 14.7619 68.2345C14.8259 68.1065 14.8899 67.9785 14.9539 67.8505C15.7219 66.3785 17.0019 64.3625 18.7939 61.8025C20.5859 59.3065 22.7619 56.4265 25.3219 53.1625C24.6819 53.2905 23.8819 53.4825 22.9219 53.7385C21.9619 53.9305 20.9379 54.1865 19.8499 54.5065C18.8259 54.8265 17.7699 55.1465 16.6819 55.4665C15.6579 55.7865 14.7299 56.1065 13.8979 56.4265L10.2499 57.6745C9.73787 57.8665 9.35387 57.7705 9.09787 57.3865C8.96987 57.1945 8.87387 57.0985 8.80987 57.0985C8.74587 57.0985 8.71387 56.9705 8.71387 56.7145C8.77787 56.3945 8.93787 56.0425 9.19387 55.6585C9.51387 55.2105 9.80187 54.8585 10.0579 54.6025C11.0179 53.7705 12.2339 53.0025 13.7059 52.2985C15.2419 51.5305 16.8419 50.8585 18.5059 50.2825C18.6979 48.1705 18.8579 46.0585 18.9859 43.9465C19.1779 41.7705 19.3379 39.6585 19.4659 37.6105C17.9299 37.9945 16.4259 38.3465 14.9539 38.6665C13.4819 38.9865 12.1379 39.2425 10.9219 39.4345C9.89787 39.5625 9.00187 39.5625 8.23387 39.4345C7.46587 39.2425 6.63387 39.0185 5.73787 38.7625C5.28987 38.6345 4.74587 38.5705 4.10587 38.5705C3.46587 38.5705 2.95387 38.4105 2.56987 38.0905C2.50587 37.9625 2.37787 37.8665 2.18587 37.8025C1.99387 37.7385 1.89787 37.6425 1.89787 37.5145C1.89787 37.1945 2.08987 36.9385 2.47387 36.7465C2.92187 36.5545 3.24187 36.4265 3.43387 36.3625C5.22587 35.7225 7.49787 35.0505 10.2499 34.3465C13.0659 33.6425 15.9139 33.0025 18.7939 32.4265C21.6739 31.7865 24.3939 31.2425 26.9539 30.7945C29.5779 30.3465 31.6259 30.0585 33.0979 29.9305C33.2899 29.9305 33.5779 29.8985 33.9619 29.8345C34.4099 29.7065 34.7299 29.7065 34.9219 29.8345C35.0499 29.9625 35.0819 30.1865 35.0179 30.5065C35.0179 30.7625 34.9859 30.9545 34.9219 31.0825C34.6659 31.5305 34.4099 31.9145 34.1539 32.2345C33.8339 32.6185 33.5459 32.9705 33.2899 33.2905C33.0339 33.6105 32.6499 33.8345 32.1379 33.9625C31.2419 34.2825 30.0899 34.6665 28.6819 35.1145C27.3379 35.4985 25.8339 35.9145 24.1699 36.3625C23.7859 39.3065 23.1139 41.8665 22.1539 44.0425C21.1939 46.1545 20.4899 48.0745 20.0419 49.8025C21.7059 49.2905 23.3059 48.8745 24.8419 48.5545C26.3779 48.2345 27.6579 48.0745 28.6819 48.0745ZM22.7299 0.842539C23.1779 0.906542 23.5619 1.00254 23.8819 1.13054C24.2019 1.25854 24.4899 1.38654 24.7459 1.51454C25.0659 1.77054 25.2259 2.05854 25.2259 2.37854C25.2899 2.69854 25.3539 3.01854 25.4179 3.33854C25.4819 3.65854 25.5779 3.97854 25.7059 4.29854C25.8339 4.55454 25.8019 4.84254 25.6099 5.16254C25.2259 5.86654 24.7779 6.60254 24.2659 7.37054C23.8179 8.07454 23.3059 8.84254 22.7299 9.67454L19.3699 14.5705C18.2819 16.1705 17.2259 17.7065 16.2019 19.1785C15.2419 20.6505 14.5379 21.8665 14.0899 22.8265C15.4339 22.5065 16.9379 22.0905 18.6019 21.5785C20.3299 21.0665 22.0259 20.5545 23.6899 20.0425C25.4179 19.4665 27.0179 18.9225 28.4899 18.4105C30.0259 17.8985 31.3059 17.4825 32.3299 17.1625C32.4579 17.0985 32.6819 17.0345 33.0019 16.9705C33.3219 16.8425 33.5139 16.8425 33.5779 16.9705C33.6419 17.0345 33.5779 17.2265 33.3859 17.5465C33.1939 17.8665 33.0979 18.0585 33.0979 18.1225C33.0339 18.4425 32.9379 18.6985 32.8099 18.8905C32.6819 19.0185 32.5219 19.1785 32.3299 19.3705C29.4499 21.0345 26.1539 22.5065 22.4419 23.7865C18.7939 25.0025 15.4659 25.9945 12.4579 26.7625C12.1379 26.8265 11.8499 26.8905 11.5939 26.9545C11.4019 26.9545 11.1779 26.9545 10.9219 26.9545C10.7299 26.8905 10.4739 26.7945 10.1539 26.6665C9.89787 26.5385 9.83387 26.3145 9.96187 25.9945C10.0899 25.6745 10.0899 25.3865 9.96187 25.1305C9.89787 24.8745 9.92987 24.5865 10.0579 24.2665C11.0179 21.1945 12.1699 18.3465 13.5139 15.7225C14.9219 13.0345 16.5219 10.1545 18.3139 7.08254C17.0339 7.21054 15.4979 7.49854 13.7059 7.94654C11.9779 8.39454 10.2819 8.87454 8.61787 9.38654C8.29787 9.51454 7.94587 9.64254 7.56187 9.77054C7.17787 9.83454 6.82587 9.80254 6.50587 9.67454C6.31387 12.7465 6.02587 15.5625 5.64187 18.1225C5.32187 19.5945 4.93787 20.7465 4.48987 21.5785C4.04187 22.3465 3.68987 23.2425 3.43387 24.2665C3.30587 24.5865 3.24187 24.9065 3.24187 25.2265C3.30587 25.5465 3.27387 25.8665 3.14587 26.1865L2.85787 26.6665C2.79387 26.7945 2.76187 26.9545 2.76187 27.1465C2.63387 27.2745 2.53787 27.4345 2.47387 27.6265C2.47387 27.8185 2.40987 27.9145 2.28187 27.9145C2.02587 27.9145 1.86587 27.6905 1.80187 27.2425L1.60987 26.5705C0.969866 23.1145 0.649866 19.5945 0.649866 16.0105C0.713866 12.4265 1.03387 9.06654 1.60987 5.93054C1.73787 5.35454 1.86587 4.90654 1.99387 4.58654C2.18587 4.20254 2.44187 3.75454 2.76187 3.24254C2.88987 3.05054 3.04987 2.76254 3.24187 2.37854C3.43387 1.99454 3.65787 1.73854 3.91387 1.61054C4.23387 1.48254 4.52187 1.35454 4.77787 1.22654C5.09787 1.03454 5.38587 0.938543 5.64187 0.938543C5.76987 1.13054 5.89787 1.32254 6.02587 1.51454C6.21787 1.70654 6.34587 1.93054 6.40987 2.18654C6.60187 2.95454 6.69787 3.78654 6.69787 4.68254C12.5859 1.73854 17.9299 0.45854 22.7299 0.842539ZM60.8831 9.48254C61.0111 9.93054 60.9471 10.3785 60.6911 10.8265C60.4991 11.2745 60.3391 11.7225 60.2111 12.1705C60.0831 12.6825 60.0191 13.2265 60.0191 13.8025C60.0831 14.3785 59.9231 14.9225 59.5391 15.4345C58.6431 16.7145 57.4911 17.9305 56.0831 19.0825C54.7391 20.2345 53.3311 21.2265 51.8591 22.0585C52.8191 21.9305 53.8111 21.8985 54.8351 21.9625C55.8591 22.0265 56.8831 22.1865 57.9071 22.4425C58.3551 22.5705 58.8991 22.6665 59.5391 22.7305C60.2431 22.7305 60.7551 22.7945 61.0751 22.9225C61.5871 23.1785 61.9071 23.4985 62.0351 23.8825C62.1631 24.2665 62.3551 24.6505 62.6111 25.0345C62.8671 25.4185 63.0271 25.8665 63.0911 26.3785C63.1551 26.8905 63.0271 27.4665 62.7071 28.1065C61.9391 29.5785 61.0751 31.2425 60.1151 33.0985C59.1551 34.8905 58.1631 36.7785 57.1391 38.7625C56.1151 40.6825 55.1231 42.6345 54.1631 44.6185C53.2031 46.5385 52.3071 48.3945 51.4751 50.1865C54.5471 48.1385 57.7791 46.0905 61.1711 44.0425C64.5631 41.9945 67.7951 40.4585 70.8671 39.4345C71.7631 39.1145 72.6911 39.0185 73.6511 39.1465C74.6111 39.2745 75.5391 39.1145 76.4351 38.6665C77.9071 37.8985 79.3471 37.4825 80.7551 37.4185C81.1391 37.3545 81.4911 37.3225 81.8111 37.3225C82.1951 37.2585 82.5471 37.2905 82.8671 37.4185C80.9471 38.7625 78.8351 40.1705 76.5311 41.6425C74.2271 43.1145 71.8591 44.5865 69.4271 46.0585C66.9951 47.4665 64.4991 48.8425 61.9391 50.1865C59.3791 51.4665 56.8831 52.6185 54.4511 53.6425C52.9791 54.3465 51.5071 54.8265 50.0351 55.0825C49.5231 55.2105 49.2031 55.3065 49.0751 55.3705C49.0111 55.3705 48.7871 55.1785 48.4031 54.7945C48.2111 54.5385 47.9871 54.3145 47.7311 54.1225C47.5391 53.9305 47.4751 53.6425 47.5391 53.2585C47.5391 52.9385 47.4751 52.6185 47.3471 52.2985C47.2191 51.9785 47.1871 51.6265 47.2511 51.2425C47.5711 49.3225 48.0511 47.2745 48.6911 45.0985C49.3951 42.8585 50.1311 40.7145 50.8991 38.6665C51.6671 36.6185 52.4031 34.7625 53.1071 33.0985C53.8111 31.3705 54.3231 30.0585 54.6431 29.1625C54.0031 29.2265 53.2671 29.3865 52.4351 29.6425C51.6031 29.8985 50.7391 30.2185 49.8431 30.6025C49.0111 30.9865 48.1471 31.4025 47.2511 31.8505C46.4191 32.2345 45.6831 32.6185 45.0431 33.0025C44.4031 33.3225 43.9551 33.2905 43.6991 32.9065C43.4431 32.5225 43.1551 32.0425 42.8351 31.4665C42.7071 31.1465 42.6751 30.8905 42.7391 30.6985C42.8671 30.4425 42.8991 30.1545 42.8351 29.8345C42.7071 29.1305 42.8031 28.3945 43.1231 27.6265C43.1871 27.3065 43.1871 27.0185 43.1231 26.7625C43.0591 26.4425 43.1231 26.1225 43.3151 25.8025C43.9551 24.6505 44.6911 23.4345 45.5231 22.1545C46.4191 20.8745 47.2511 19.6905 48.0191 18.6025C48.8511 17.4505 49.5231 16.4265 50.0351 15.5305C50.6111 14.6345 50.8991 13.9625 50.8991 13.5145C50.9631 12.8745 50.4511 12.1705 49.3631 11.4025C48.3391 10.6345 46.8351 9.99454 44.8511 9.48254L42.9311 8.81054C42.7391 8.55454 42.7071 8.07454 42.8351 7.37054C42.8351 6.66654 43.2191 5.77054 43.9871 4.68254C44.1791 4.36254 44.4031 4.13854 44.6591 4.01054C44.9791 3.88254 45.3311 3.72254 45.7151 3.53054C46.0351 3.40254 46.3551 3.21054 46.6751 2.95454C47.0591 2.63454 47.4111 2.50654 47.7311 2.57054C49.5871 2.82654 51.3471 3.30654 53.0111 4.01054C54.6751 4.65054 56.1471 5.38654 57.4271 6.21854C58.1951 6.73054 58.8671 7.24254 59.4431 7.75454C60.0831 8.26654 60.5631 8.84254 60.8831 9.48254ZM103.891 45.7705C103.251 47.0505 102.419 48.3305 101.395 49.6105C100.435 50.8265 99.3791 52.0105 98.2271 53.1625C97.0751 54.2505 95.9231 55.2745 94.7711 56.2345C93.6191 57.1945 92.5631 57.9945 91.6031 58.6345C92.5631 58.3785 93.6191 58.1545 94.7711 57.9625C95.9871 57.7065 97.1711 57.4825 98.3231 57.2905C99.5391 57.0985 100.691 56.9705 101.779 56.9065C102.867 56.7785 103.763 56.7145 104.467 56.7145C105.555 56.7145 106.387 56.8425 106.963 57.0985C107.219 57.2265 107.507 57.2905 107.827 57.2905C108.211 57.2905 108.531 57.3545 108.787 57.4825C109.683 58.1865 110.227 58.9545 110.419 59.7865C110.547 60.2345 110.483 60.7465 110.227 61.3225C109.971 61.8985 109.683 62.4425 109.363 62.9545C108.211 64.5545 106.899 66.2825 105.427 68.1385C103.955 69.9945 102.515 71.8505 101.107 73.7065C99.6991 75.6265 98.3871 77.5145 97.1711 79.3705C96.0191 81.2265 95.1231 82.9545 94.4831 84.5545C95.5711 84.3625 97.1071 83.8185 99.0911 82.9225C101.075 82.0265 103.155 81.0025 105.331 79.8505C107.507 78.6985 109.587 77.5145 111.571 76.2985C113.619 75.0825 115.219 74.0585 116.371 73.2265C116.627 73.0345 116.915 72.8105 117.235 72.5545C117.619 72.3625 117.971 72.1705 118.291 71.9785C118.739 71.6585 119.091 71.4025 119.347 71.2105C119.603 71.0825 119.923 70.9545 120.307 70.8265C120.115 71.2105 119.923 71.5625 119.731 71.8825C119.539 72.2025 119.347 72.5225 119.155 72.8425C118.771 73.4185 118.419 73.9945 118.099 74.5705C117.779 75.1465 117.395 75.6905 116.947 76.2025C114.067 79.6585 110.739 82.6025 106.963 85.0345C103.187 87.5305 99.2511 89.5145 95.1551 90.9865C94.6431 91.1145 94.2591 91.0825 94.0031 90.8905C93.8111 90.7625 93.5551 90.6345 93.2351 90.5065C92.9151 90.3785 92.5951 90.2505 92.2751 90.1225C91.9551 90.0585 91.7311 89.8665 91.6031 89.5465C91.4111 89.1625 91.4111 88.7465 91.6031 88.2985C91.7951 87.9145 91.8911 87.4665 91.8911 86.9545C91.9551 86.6345 91.8911 86.2825 91.6991 85.8985C91.5711 85.5145 91.5711 85.1305 91.6991 84.7465C92.1471 83.1465 92.8191 81.2905 93.7151 79.1785C94.6751 77.0665 95.6991 74.9865 96.7871 72.9385C97.8751 70.8905 98.9631 68.9705 100.051 67.1785C101.139 65.4505 102.067 64.1065 102.835 63.1465C102.899 62.8905 102.419 62.8585 101.395 63.0505C100.371 63.3065 99.0911 63.6585 97.5551 64.1065C96.0191 64.5545 94.3551 65.0665 92.5631 65.6425C90.8351 66.2185 89.2671 66.7305 87.8591 67.1785C87.5391 67.3065 87.3151 67.0825 87.1871 66.5065C87.1231 65.9305 87.0271 65.5785 86.8991 65.4505C86.5151 64.7465 86.2591 64.1385 86.1311 63.6265C86.0031 63.2425 85.9711 62.9865 86.0351 62.8585C86.1631 62.7305 86.3871 62.3465 86.7071 61.7065C86.8351 61.5785 86.8991 61.2905 86.8991 60.8425C86.8991 60.4585 86.9631 60.1385 87.0911 59.8825C87.7311 58.7945 88.4671 57.6745 89.2991 56.5225C90.1951 55.3065 91.0591 54.1865 91.8911 53.1625C92.7871 52.0745 93.5871 51.1145 94.2911 50.2825C94.9951 49.4505 95.5071 48.8105 95.8271 48.3625C95.0591 48.5545 94.1311 48.8105 93.0431 49.1305C91.9551 49.3865 90.8351 49.6745 89.6831 49.9945C88.5311 50.3145 87.3471 50.6345 86.1311 50.9545C84.9791 51.2745 83.8911 51.5945 82.8671 51.9145C82.0991 52.2345 81.6511 52.2985 81.5231 52.1065C81.3951 51.8505 81.3311 51.4985 81.3311 51.0505L81.4271 49.4185C81.4271 49.0345 81.3951 48.6505 81.3311 48.2665C81.3311 47.8185 81.3951 47.4345 81.5231 47.1145C81.6511 46.8585 81.7791 46.6345 81.9071 46.4425C82.0991 46.1865 82.2591 45.9945 82.3871 45.8665L82.8671 45.3865C84.5951 43.7865 86.5791 42.6025 88.8191 41.8345C91.1231 41.0665 93.3951 40.6825 95.6351 40.6825C96.8511 40.6825 97.9711 40.8105 98.9951 41.0665C99.5071 41.1945 100.051 41.2905 100.627 41.3545C101.267 41.4185 101.811 41.5785 102.259 41.8345C102.579 41.9625 102.867 42.1545 103.123 42.4105C103.379 42.6665 103.603 42.8905 103.795 43.0825C104.115 43.4665 104.243 43.8825 104.179 44.3305C104.115 44.7785 104.019 45.2585 103.891 45.7705ZM90.5471 37.4185C90.4191 37.9945 90.1311 38.4745 89.6831 38.8585C89.2351 39.1785 88.9471 39.3705 88.8191 39.4345C88.6271 39.1785 88.5311 38.9545 88.5311 38.7625C88.5311 38.5065 88.4671 38.2185 88.3391 37.8985C88.2111 37.5785 88.0511 37.2905 87.8591 37.0345C87.6671 36.7145 87.5071 36.4265 87.3791 36.1705C87.3151 35.8505 87.2191 35.5305 87.0911 35.2105C87.0271 34.8905 86.9951 34.5705 86.9951 34.2505C87.0591 29.8345 87.3471 25.3545 87.8591 20.8105C84.7871 22.8585 81.4271 24.6185 77.7791 26.0905C74.1311 27.4985 70.4831 28.5865 66.8351 29.3545C67.0911 28.4585 67.4751 27.8185 67.9871 27.4345C68.4991 27.0505 68.9791 26.6025 69.4271 26.0905C69.7471 25.8345 69.9391 25.4825 70.0031 25.0345C70.1311 24.5865 70.3551 24.2665 70.6751 24.0745C71.6351 23.6265 72.7871 23.1465 74.1311 22.6345C75.5391 22.0585 77.0111 21.5145 78.5471 21.0025C80.0831 20.4905 81.6831 19.9785 83.3471 19.4665C85.0111 18.8905 86.6111 18.3785 88.1471 17.9305C88.2751 16.5865 88.4031 15.2425 88.5311 13.8985C88.7231 12.5545 88.9471 11.1785 89.2031 9.77054C89.2671 9.25854 89.3311 8.87454 89.3951 8.61854C89.5231 8.36254 89.7151 8.01054 89.9711 7.56254C90.0991 7.30654 90.2271 6.92254 90.3551 6.41054C90.5471 5.89854 90.7391 5.57854 90.9311 5.45054C91.2511 5.77054 91.4751 5.99454 91.6031 6.12254C91.7311 6.18654 91.8911 6.37854 92.0831 6.69854C92.3391 7.01854 92.5631 7.59454 92.7551 8.42654C93.0111 9.25854 93.2031 9.86654 93.3311 10.2505C93.5871 11.0825 93.8111 11.7865 94.0031 12.3625C94.1951 12.9385 94.2591 13.6745 94.1951 14.5705L90.5471 37.4185ZM107.155 0.842539C107.987 6.41054 108.115 11.9145 107.539 17.3545C107.027 22.7305 106.323 28.1385 105.427 33.5785C105.299 34.0905 105.171 34.4105 105.043 34.5385C104.915 34.6025 104.787 34.8905 104.659 35.4025C104.659 35.5305 104.627 35.7225 104.563 35.9785C104.499 36.2345 104.403 36.4905 104.275 36.7465C104.211 36.9385 104.115 37.1305 103.987 37.3225C103.859 37.4505 103.763 37.4825 103.699 37.4185C103.123 37.2905 102.771 37.1305 102.643 36.9385C102.515 35.1465 102.419 32.8745 102.355 30.1225C102.291 27.3065 102.291 24.3945 102.355 21.3865C102.483 18.3145 102.707 15.3065 103.027 12.3625C103.411 9.35454 103.955 6.73054 104.659 4.49054C104.851 3.78654 105.075 3.30654 105.331 3.05054C105.587 2.73054 105.875 2.31454 106.195 1.80254C106.259 1.67454 106.323 1.45054 106.387 1.13054C106.451 0.746542 106.547 0.554543 106.675 0.554543C106.995 0.554543 107.155 0.650541 107.155 0.842539ZM134.109 11.4985C134.173 11.7545 134.301 12.2985 134.493 13.1305C134.749 13.9625 134.813 14.9865 134.685 16.2025C134.621 17.3545 134.269 18.6665 133.629 20.1385C133.053 21.6105 131.965 23.0825 130.365 24.5545C130.813 24.4905 131.421 24.4585 132.189 24.4585C132.957 24.4585 133.725 24.5225 134.493 24.6505C135.133 24.7785 135.677 25.0025 136.125 25.3225C136.637 25.5785 136.957 25.9625 137.085 26.4745C137.149 26.7945 137.277 27.1465 137.469 27.5305C137.725 27.8505 137.789 28.2025 137.661 28.5865C137.533 28.9065 137.277 29.2265 136.893 29.5465C136.573 29.8665 136.253 30.1865 135.933 30.5065C135.357 31.2745 134.653 32.1705 133.821 33.1945C133.053 34.1545 132.253 35.1465 131.421 36.1705C130.589 37.1305 129.821 38.0905 129.117 39.0505C128.477 39.9465 127.997 40.7145 127.677 41.3545C128.253 41.2265 129.181 41.0025 130.461 40.6825C131.741 40.3625 133.181 40.0105 134.781 39.6265C136.445 39.2425 138.141 38.8905 139.869 38.5705C141.597 38.2505 143.229 38.0265 144.765 37.8985C145.213 37.8985 145.341 37.9945 145.149 38.1865C145.021 38.5065 144.765 38.7305 144.381 38.8585C144.061 38.9225 143.773 39.1145 143.517 39.4345C143.069 40.0105 142.557 40.5865 141.981 41.1625C141.405 41.7385 140.637 42.2825 139.677 42.7945C137.821 43.3705 135.389 44.2665 132.381 45.4825C129.437 46.6985 126.301 47.9785 122.973 49.3225C122.589 49.1945 122.301 48.8745 122.109 48.3625C121.917 47.8505 121.757 47.4345 121.629 47.1145C121.501 46.8585 121.501 46.5705 121.629 46.2505C121.757 45.9305 121.789 45.6105 121.725 45.2905C121.597 44.7785 121.597 44.2345 121.725 43.6585C121.917 42.3145 122.429 40.9705 123.261 39.6265C124.093 38.2185 125.053 36.9065 126.141 35.6905C127.293 34.4105 128.477 33.2265 129.693 32.1385C130.909 30.9865 131.965 30.0265 132.861 29.2585C132.349 29.2585 131.613 29.3225 130.653 29.4505C129.757 29.5145 128.797 29.6425 127.773 29.8345C126.813 29.9625 125.853 30.1225 124.893 30.3145C123.997 30.4425 123.261 30.5705 122.685 30.6985C122.301 30.5705 122.013 30.3145 121.821 29.9305C121.629 29.5465 121.469 29.1305 121.341 28.6825C121.277 28.3625 121.309 28.1385 121.437 28.0105C121.629 27.8825 121.789 27.6265 121.917 27.2425C122.045 26.8585 122.173 26.3785 122.301 25.8025C122.493 25.2265 122.749 24.8425 123.069 24.6505C125.117 22.6025 126.781 20.7465 128.061 19.0825C129.341 17.4185 130.269 15.7225 130.845 13.9945C129.245 11.2425 125.661 9.32254 120.093 8.23454C119.965 8.10654 119.965 7.91454 120.093 7.65854C120.221 7.40254 120.285 7.17854 120.285 6.98654C120.285 6.85854 120.381 6.76254 120.573 6.69854C120.765 6.63454 120.925 6.57054 121.053 6.50654C121.181 6.37854 121.277 6.25054 121.341 6.12254C121.469 5.99454 121.597 5.93054 121.725 5.93054C122.877 5.86654 124.061 5.89854 125.277 6.02654C126.557 6.15454 127.773 6.44254 128.925 6.89054C130.077 7.33854 131.101 7.94654 131.997 8.71454C132.957 9.41854 133.661 10.3465 134.109 11.4985ZM150.621 54.3145C150.749 54.5065 150.813 54.7625 150.813 55.0825C150.813 55.4025 150.653 55.6265 150.333 55.7545C148.733 56.3945 146.813 57.0345 144.573 57.6745C142.397 58.3145 139.965 58.8905 137.277 59.4025C137.341 60.3625 137.373 61.4505 137.373 62.6665C137.437 63.9465 137.437 65.2585 137.373 66.6025C137.373 67.9465 137.341 69.2585 137.277 70.5385C137.213 71.8825 137.117 73.0985 136.989 74.1865C136.861 74.9545 136.861 75.6905 136.989 76.3945C137.181 77.0985 137.149 77.7065 136.893 78.2185C136.317 77.8985 135.837 77.2905 135.453 76.3945C135.069 75.5625 134.749 74.6025 134.493 73.5145C134.301 72.7465 134.141 71.8185 134.013 70.7305C133.885 69.6425 133.757 68.4905 133.629 67.2745C133.565 66.0585 133.533 64.8425 133.533 63.6265C133.533 62.4105 133.565 61.2585 133.629 60.1705C130.749 60.6825 127.933 61.0665 125.181 61.3225C122.493 61.5785 119.997 61.6425 117.693 61.5145C117.309 61.5145 116.957 61.2905 116.637 60.8425C116.317 60.3945 115.869 60.0105 115.293 59.6905C114.781 59.3705 114.461 58.8905 114.333 58.2505C114.269 57.6105 114.429 57.2585 114.813 57.1945C120.445 56.2985 125.629 55.3385 130.365 54.3145C135.101 53.2905 139.933 52.2665 144.861 51.2425C145.373 51.1145 145.853 51.2105 146.301 51.5305C146.749 51.8505 147.165 52.0745 147.549 52.2025C147.933 52.3305 148.381 52.4585 148.893 52.5865C149.469 52.7145 149.917 52.9385 150.237 53.2585C150.365 53.3865 150.429 53.5465 150.429 53.7385C150.429 53.9305 150.493 54.1225 150.621 54.3145ZM168.204 32.1385C168.524 32.2665 168.876 32.4585 169.26 32.7145C169.708 32.9705 170.06 33.1945 170.316 33.3865C170.7 33.7065 170.956 34.0265 171.084 34.3465C171.276 34.6665 171.468 35.0505 171.66 35.4985C172.108 36.6505 172.3 38.0585 172.236 39.7225C172.172 41.3225 171.852 42.9545 171.276 44.6185C170.7 46.2185 169.868 47.7545 168.78 49.2265C167.756 50.6985 166.508 51.8505 165.036 52.6825C164.396 53.0665 163.692 53.4505 162.924 53.8345C162.156 54.2185 161.42 54.4425 160.716 54.5065C160.332 54.5065 160.044 54.4425 159.852 54.3145C159.724 54.1225 159.5 53.9625 159.18 53.8345C158.668 53.5145 158.188 53.2265 157.74 52.9705C157.292 52.7145 157.004 52.2665 156.876 51.6265C156.812 51.3065 156.716 50.8585 156.588 50.2825C156.524 49.7065 156.46 49.2585 156.396 48.9385C156.332 48.2985 156.268 47.7545 156.204 47.3065C156.14 46.8585 156.108 46.4425 156.108 46.0585C156.108 45.6745 156.14 45.2585 156.204 44.8105C156.268 44.3625 156.364 43.7865 156.492 43.0825C156.748 42.1865 157.1 41.1945 157.548 40.1065C157.996 38.9545 158.444 37.8345 158.892 36.7465C159.404 35.5945 159.884 34.5385 160.332 33.5785C160.844 32.6185 161.292 31.8505 161.676 31.2745C162.316 30.4425 162.892 29.7705 163.404 29.2585C163.596 29.1305 163.82 29.0025 164.076 28.8745C164.332 28.6825 164.556 28.5865 164.748 28.5865C164.812 28.5865 164.94 28.5545 165.132 28.4905C165.324 28.3625 165.452 28.3625 165.516 28.4905C165.388 28.9385 165.26 29.3865 165.132 29.8345C165.004 30.2825 164.876 30.7625 164.748 31.2745C165.964 31.4025 167.116 31.6905 168.204 32.1385ZM186.924 60.3625C186.796 60.2345 186.604 60.0745 186.348 59.8825C186.156 59.7545 186.028 59.6265 185.964 59.4985C185.58 57.2585 185.196 54.7625 184.812 52.0105C184.428 49.1945 184.14 46.1865 183.948 42.9865C183.756 39.7865 183.692 36.4585 183.756 33.0025C183.884 29.4825 184.236 25.8985 184.812 22.2505C184.94 21.8665 185.068 21.4825 185.196 21.0985C185.388 20.6505 185.58 20.2025 185.772 19.7545C185.9 19.3705 185.996 18.9225 186.06 18.4105C186.124 17.8985 186.316 17.5785 186.636 17.4505C187.276 17.3865 187.724 17.5465 187.98 17.9305C188.3 18.3145 188.492 18.9225 188.556 19.7545C188.684 20.5225 188.748 21.3545 188.748 22.2505C188.748 24.7465 188.78 27.5305 188.844 30.6025C188.908 33.6105 188.972 36.6505 189.036 39.7225C189.1 42.7945 189.164 45.7705 189.228 48.6505C189.292 51.5305 189.324 54.0585 189.324 56.2345C189.324 56.3625 189.196 56.6825 188.94 57.1945C188.684 57.6425 188.492 57.9305 188.364 58.0585C187.852 58.6345 187.5 59.1465 187.308 59.5945C187.18 60.1065 187.052 60.3625 186.924 60.3625ZM222.828 38.6665C222.956 38.6665 222.828 38.7945 222.444 39.0505C222.06 39.3065 221.772 39.5945 221.58 39.9145C221.324 40.2345 221.068 40.4265 220.812 40.4905C220.556 40.4905 220.172 40.7465 219.66 41.2585C216.908 42.2185 214.38 43.1145 212.076 43.9465C209.772 44.7145 207.564 45.3545 205.452 45.8665C203.404 46.3145 201.356 46.6025 199.308 46.7305C197.26 46.7945 195.116 46.6345 192.876 46.2505C192.364 46.1225 192.044 45.8665 191.916 45.4825C191.852 45.0985 191.756 44.7785 191.628 44.5225C191.372 44.2665 191.084 43.9785 190.764 43.6585C190.508 43.2745 190.54 43.0505 190.86 42.9865C195.916 42.0905 200.908 41.2585 205.836 40.4905C210.828 39.7225 216.14 39.1145 221.772 38.6665H222.828ZM211.98 31.1785L211.02 31.4665L209.1 32.3305C208.844 32.4585 208.46 32.5545 207.948 32.6185C207.5 32.6185 207.116 32.6505 206.796 32.7145C204.556 32.9705 202.124 33.1945 199.5 33.3865C196.876 33.5785 194.092 33.8025 191.148 34.0585C190.956 33.8025 190.892 33.5785 190.956 33.3865C191.02 33.1945 191.116 32.9065 191.244 32.5225C191.308 32.3305 191.436 32.1705 191.628 32.0425C191.884 31.9145 192.076 31.7865 192.204 31.6585C192.396 31.5305 192.556 31.3705 192.684 31.1785C192.812 30.9865 192.972 30.8265 193.164 30.6985C196.428 30.1225 199.436 29.8345 202.188 29.8345C205.004 29.7705 207.66 30.0265 210.156 30.6025L211.98 31.1785ZM161.484 46.9225C161.676 46.9225 162.316 46.4105 163.404 45.3865C164.556 44.3625 165.516 43.0185 166.284 41.3545C167.052 39.6905 167.244 38.0265 166.86 36.3625C166.412 34.7625 165.516 33.7705 164.172 33.3865C163.532 35.6905 162.924 38.1225 162.348 40.6825C161.772 43.1785 161.484 45.2585 161.484 46.9225ZM242.53 11.0185C242.146 13.2585 241.698 15.6585 241.186 18.2185C240.738 20.7785 240.29 23.3385 239.842 25.8985C239.394 28.4585 239.01 30.9225 238.69 33.2905C238.37 35.6585 238.178 37.7385 238.114 39.5305L236.674 43.7545C236.226 44.2025 235.938 44.7465 235.81 45.3865C235.682 46.0265 235.618 46.6985 235.618 47.4025C235.618 48.1065 235.618 48.8105 235.618 49.5145C235.682 50.2185 235.65 50.8585 235.522 51.4345C235.458 51.7545 235.202 52.1065 234.754 52.4905C234.37 52.8105 234.05 53.0665 233.794 53.2585C233.538 53.4505 233.378 53.5465 233.314 53.5465C233.25 53.5465 232.962 53.5465 232.45 53.5465C232.194 50.0265 232.098 46.4105 232.162 42.6985C232.226 38.9225 232.418 35.2105 232.738 31.5625C233.122 27.8505 233.666 24.2665 234.37 20.8105C235.074 17.2905 235.938 14.0265 236.962 11.0185C237.282 10.6985 237.602 10.5065 237.922 10.4425C238.306 10.3145 238.754 10.1225 239.266 9.86654C240.098 9.35454 240.834 9.09854 241.474 9.09854C241.794 9.35454 242.05 9.67454 242.242 10.0585C242.498 10.3785 242.594 10.6985 242.53 11.0185ZM237.442 63.4345C238.146 64.3945 238.146 65.3225 237.442 66.2185C236.802 67.0505 236.034 67.6905 235.138 68.1385C234.434 68.4585 233.922 68.5545 233.602 68.4265C233.346 68.2985 233.026 68.1705 232.642 68.0425C232.386 67.9145 231.938 67.7545 231.298 67.5625C230.722 67.4345 230.338 67.2105 230.146 66.8905C229.698 66.1865 229.378 65.4185 229.186 64.5865C229.058 63.8185 228.994 62.9545 228.994 61.9945C228.994 61.6105 229.154 61.2905 229.474 61.0345C229.794 60.8425 230.178 60.6825 230.626 60.5545C231.138 60.4905 231.618 60.4585 232.066 60.4585C232.514 60.4585 232.898 60.4905 233.218 60.5545C233.794 60.7465 234.146 61.0025 234.274 61.3225C234.402 61.7065 234.626 62.0265 234.946 62.2825C235.842 63.0505 236.674 63.4345 237.442 63.4345Z" fill="white"/>
</svg>
