<svg width="115" height="90" viewBox="0 0 115 90" fill="none" xmlns="http://www.w3.org/2000/svg">
<path d="M43.1479 19.8141C42.5469 19.8141 42.0607 20.3036 42.0607 20.9103C42.0607 21.517 42.5469 22.0065 43.1479 22.0065C43.7488 22.0065 44.2365 21.5155 44.2365 20.9103C44.2365 20.3051 43.7488 19.8141 43.1479 19.8141ZM74.1536 20.8953C72.1882 20.8953 70.5896 22.5051 70.5896 24.4828C70.5896 26.4605 72.1882 28.0703 74.1536 28.0703C76.119 28.0703 77.7162 26.4605 77.7162 24.4828C77.7162 22.5051 76.1176 20.8953 74.1536 20.8953ZM74.1536 26.0205C73.3111 26.0205 72.6266 25.3312 72.6266 24.4828C72.6266 23.6343 73.3111 22.9451 74.1536 22.9451C74.9962 22.9451 75.6806 23.6343 75.6806 24.4828C75.6806 25.3312 74.9947 26.0205 74.1536 26.0205ZM35.978 18.844C35.4158 18.844 34.9595 19.3035 34.9595 19.8696V21.9194C34.9595 22.4856 35.4158 22.9451 35.978 22.9451C36.5402 22.9451 36.995 22.4856 36.995 21.9194V19.8696C36.995 19.3035 36.5402 18.844 35.978 18.844ZM35.978 24.9949C35.4158 24.9949 34.9595 25.4544 34.9595 26.0205V28.0703C34.9595 28.6364 35.4158 29.0959 35.978 29.0959C36.5402 29.0959 36.995 28.6364 36.995 28.0703V26.0205C36.995 25.4544 36.5402 24.9949 35.978 24.9949ZM33.941 22.9451H31.9054C31.3432 22.9451 30.8869 23.4046 30.8869 23.9707C30.8869 24.5369 31.3432 24.9949 31.9054 24.9949H33.941C34.5032 24.9949 34.9595 24.5369 34.9595 23.9707C34.9595 23.4046 34.5032 22.9451 33.941 22.9451ZM40.0491 22.9451H38.0135C37.4513 22.9451 36.995 23.4046 36.995 23.9707C36.995 24.5369 37.4513 24.9949 38.0135 24.9949H40.0491C40.6113 24.9949 41.0676 24.5369 41.0676 23.9707C41.0676 23.4046 40.6113 22.9451 40.0491 22.9451ZM42.0861 46.5229H40.0491C39.4869 46.5229 39.032 46.9824 39.032 47.5486C39.032 48.1147 39.4869 48.5742 40.0491 48.5742H42.0861C42.6483 48.5742 43.1031 48.1147 43.1031 47.5486C43.1031 46.9824 42.6483 46.5229 42.0861 46.5229ZM47.1757 46.5229H45.1401C44.5779 46.5229 44.1216 46.9824 44.1216 47.5486C44.1216 48.1147 44.5779 48.5742 45.1401 48.5742H47.1757C47.7379 48.5742 48.1942 48.1147 48.1942 47.5486C48.1942 46.9824 47.7379 46.5229 47.1757 46.5229ZM47.1757 39.3479C46.6135 39.3479 46.1572 39.8059 46.1572 40.372V41.3977C46.1572 41.9638 46.6135 42.4233 47.1757 42.4233C47.7379 42.4233 48.1942 41.9638 48.1942 41.3977V40.372C48.1942 39.8059 47.7379 39.3479 47.1757 39.3479ZM50.2297 39.3479C49.6675 39.3479 49.2112 39.8059 49.2112 40.372V41.3977C49.2112 41.9638 49.6675 42.4233 50.2297 42.4233C50.7919 42.4233 51.2482 41.9638 51.2482 41.3977V40.372C51.2482 39.8059 50.7919 39.3479 50.2297 39.3479ZM52.2653 46.5229H50.2297C49.6675 46.5229 49.2112 46.9824 49.2112 47.5486C49.2112 48.1147 49.6675 48.5742 50.2297 48.5742H52.2653C52.8275 48.5742 53.2838 48.1147 53.2838 47.5486C53.2838 46.9824 52.8275 46.5229 52.2653 46.5229ZM53.2838 39.3479C52.7216 39.3479 52.2653 39.8059 52.2653 40.372V41.3977C52.2653 41.9638 52.7216 42.4233 53.2838 42.4233C53.846 42.4233 54.3023 41.9638 54.3023 41.3977V40.372C54.3023 39.8059 53.846 39.3479 53.2838 39.3479ZM54.3023 50.624H52.2653C51.7031 50.624 51.2482 51.0835 51.2482 51.6496C51.2482 52.2158 51.7031 52.6738 52.2653 52.6738H54.3023C54.8645 52.6738 55.3193 52.2158 55.3193 51.6496C55.3193 51.0835 54.8645 50.624 54.3023 50.624ZM56.3378 39.3479C55.7756 39.3479 55.3193 39.8059 55.3193 40.372V41.3977C55.3193 41.9638 55.7756 42.4233 56.3378 42.4233C56.9 42.4233 57.3563 41.9638 57.3563 41.3977V40.372C57.3563 39.8059 56.9 39.3479 56.3378 39.3479ZM57.3563 46.5229H55.3193C54.7571 46.5229 54.3023 46.9824 54.3023 47.5486C54.3023 48.1147 54.7571 48.5742 55.3193 48.5742H57.3563C57.9185 48.5742 58.3734 48.1147 58.3734 47.5486C58.3734 46.9824 57.9185 46.5229 57.3563 46.5229ZM59.3919 50.624H57.3563C56.7941 50.624 56.3378 51.0835 56.3378 51.6496C56.3378 52.2158 56.7941 52.6738 57.3563 52.6738H59.3919C59.9541 52.6738 60.4104 52.2158 60.4104 51.6496C60.4104 51.0835 59.9541 50.624 59.3919 50.624ZM59.3919 39.3479C58.8297 39.3479 58.3734 39.8059 58.3734 40.372V41.3977C58.3734 41.9638 58.8297 42.4233 59.3919 42.4233C59.9541 42.4233 60.4104 41.9638 60.4104 41.3977V40.372C60.4104 39.8059 59.9541 39.3479 59.3919 39.3479ZM62.4459 46.5229H60.4104C59.8482 46.5229 59.3919 46.9824 59.3919 47.5486C59.3919 48.1147 59.8482 48.5742 60.4104 48.5742H62.4459C63.0081 48.5742 63.4644 48.1147 63.4644 47.5486C63.4644 46.9824 63.0081 46.5229 62.4459 46.5229ZM64.4815 50.624H62.4459C61.8837 50.624 61.4274 51.0835 61.4274 51.6496C61.4274 52.2158 61.8837 52.6738 62.4459 52.6738H64.4815C65.0437 52.6738 65.5 52.2158 65.5 51.6496C65.5 51.0835 65.0437 50.624 64.4815 50.624ZM67.5355 46.5229H65.5C64.9378 46.5229 64.4815 46.9824 64.4815 47.5486C64.4815 48.1147 64.9378 48.5742 65.5 48.5742H67.5355C68.0977 48.5742 68.554 48.1147 68.554 47.5486C68.554 46.9824 68.0977 46.5229 67.5355 46.5229ZM69.5725 50.624H67.5355C66.9733 50.624 66.5185 51.0835 66.5185 51.6496C66.5185 52.2158 66.9733 52.6738 67.5355 52.6738H69.5725C70.1347 52.6738 70.5896 52.2158 70.5896 51.6496C70.5896 51.0835 70.1347 50.624 69.5725 50.624ZM74.6621 50.624H72.6266C72.0644 50.624 71.6081 51.0835 71.6081 51.6496C71.6081 52.2158 72.0644 52.6738 72.6266 52.6738H74.6621C75.2243 52.6738 75.6806 52.2158 75.6806 51.6496C75.6806 51.0835 75.2243 50.624 74.6621 50.624ZM74.6621 50.624H72.6266C72.0644 50.624 71.6081 51.0835 71.6081 51.6496C71.6081 52.2158 72.0644 52.6738 72.6266 52.6738H74.6621C75.2243 52.6738 75.6806 52.2158 75.6806 51.6496C75.6806 51.0835 75.2243 50.624 74.6621 50.624ZM69.5725 50.624H67.5355C66.9733 50.624 66.5185 51.0835 66.5185 51.6496C66.5185 52.2158 66.9733 52.6738 67.5355 52.6738H69.5725C70.1347 52.6738 70.5896 52.2158 70.5896 51.6496C70.5896 51.0835 70.1347 50.624 69.5725 50.624ZM68.554 47.5486C68.554 46.9824 68.0977 46.5229 67.5355 46.5229H65.5C64.9378 46.5229 64.4815 46.9824 64.4815 47.5486C64.4815 48.1147 64.9378 48.5742 65.5 48.5742H67.5355C68.0977 48.5742 68.554 48.1147 68.554 47.5486ZM64.4815 50.624H62.4459C61.8837 50.624 61.4274 51.0835 61.4274 51.6496C61.4274 52.2158 61.8837 52.6738 62.4459 52.6738H64.4815C65.0437 52.6738 65.5 52.2158 65.5 51.6496C65.5 51.0835 65.0437 50.624 64.4815 50.624ZM63.4644 47.5486C63.4644 46.9824 63.0081 46.5229 62.4459 46.5229H60.4104C59.8482 46.5229 59.3919 46.9824 59.3919 47.5486C59.3919 48.1147 59.8482 48.5742 60.4104 48.5742H62.4459C63.0081 48.5742 63.4644 48.1147 63.4644 47.5486ZM59.3919 50.624H57.3563C56.7941 50.624 56.3378 51.0835 56.3378 51.6496C56.3378 52.2158 56.7941 52.6738 57.3563 52.6738H59.3919C59.9541 52.6738 60.4104 52.2158 60.4104 51.6496C60.4104 51.0835 59.9541 50.624 59.3919 50.624ZM58.3734 47.5486C58.3734 46.9824 57.9185 46.5229 57.3563 46.5229H55.3193C54.7571 46.5229 54.3023 46.9824 54.3023 47.5486C54.3023 48.1147 54.7571 48.5742 55.3193 48.5742H57.3563C57.9185 48.5742 58.3734 48.1147 58.3734 47.5486ZM54.3023 50.624H52.2653C51.7031 50.624 51.2482 51.0835 51.2482 51.6496C51.2482 52.2158 51.7031 52.6738 52.2653 52.6738H54.3023C54.8645 52.6738 55.3193 52.2158 55.3193 51.6496C55.3193 51.0835 54.8645 50.624 54.3023 50.624ZM50.2297 48.5742H52.2653C52.8275 48.5742 53.2838 48.1147 53.2838 47.5486C53.2838 46.9824 52.8275 46.5229 52.2653 46.5229H50.2297C49.6675 46.5229 49.2112 46.9824 49.2112 47.5486C49.2112 48.1147 49.6675 48.5742 50.2297 48.5742ZM45.1401 48.5742H47.1757C47.7379 48.5742 48.1942 48.1147 48.1942 47.5486C48.1942 46.9824 47.7379 46.5229 47.1757 46.5229H45.1401C44.5779 46.5229 44.1216 46.9824 44.1216 47.5486C44.1216 48.1147 44.5779 48.5742 45.1401 48.5742ZM40.0491 48.5742H42.0861C42.6483 48.5742 43.1031 48.1147 43.1031 47.5486C43.1031 46.9824 42.6483 46.5229 42.0861 46.5229H40.0491C39.4869 46.5229 39.032 46.9824 39.032 47.5486C39.032 48.1147 39.4869 48.5742 40.0491 48.5742ZM59.3919 39.3479C58.8297 39.3479 58.3734 39.8059 58.3734 40.372V41.3977C58.3734 41.9638 58.8297 42.4233 59.3919 42.4233C59.9541 42.4233 60.4104 41.9638 60.4104 41.3977V40.372C60.4104 39.8059 59.9541 39.3479 59.3919 39.3479ZM56.3378 39.3479C55.7756 39.3479 55.3193 39.8059 55.3193 40.372V41.3977C55.3193 41.9638 55.7756 42.4233 56.3378 42.4233C56.9 42.4233 57.3563 41.9638 57.3563 41.3977V40.372C57.3563 39.8059 56.9 39.3479 56.3378 39.3479ZM53.2838 39.3479C52.7216 39.3479 52.2653 39.8059 52.2653 40.372V41.3977C52.2653 41.9638 52.7216 42.4233 53.2838 42.4233C53.846 42.4233 54.3023 41.9638 54.3023 41.3977V40.372C54.3023 39.8059 53.846 39.3479 53.2838 39.3479ZM50.2297 39.3479C49.6675 39.3479 49.2112 39.8059 49.2112 40.372V41.3977C49.2112 41.9638 49.6675 42.4233 50.2297 42.4233C50.7919 42.4233 51.2482 41.9638 51.2482 41.3977V40.372C51.2482 39.8059 50.7919 39.3479 50.2297 39.3479ZM47.1757 39.3479C46.6135 39.3479 46.1572 39.8059 46.1572 40.372V41.3977C46.1572 41.9638 46.6135 42.4233 47.1757 42.4233C47.7379 42.4233 48.1942 41.9638 48.1942 41.3977V40.372C48.1942 39.8059 47.7379 39.3479 47.1757 39.3479ZM83.8243 41.3977C83.4753 41.3977 83.1666 41.5749 82.9832 41.8452C82.4523 42.0734 80.9656 42.3257 78.7347 42.5615V36.2725C78.7347 35.7063 78.2784 35.2468 77.7162 35.2468H72.6266C72.0644 35.2468 71.6081 35.7063 71.6081 36.2725V43.0961C69.7485 43.1937 67.7025 43.2763 65.5 43.3364V38.3223H67.537C67.874 38.3223 68.1902 38.1541 68.3795 37.8718C68.5689 37.5894 68.6062 37.232 68.4809 36.9152L66.4454 31.79C66.2903 31.401 65.916 31.1457 65.5 31.1457H42.0861C41.67 31.1457 41.2957 31.401 41.1407 31.79L39.1036 36.9152C38.9784 37.232 39.0171 37.5894 39.2065 37.8718C39.3959 38.1541 39.7121 38.3223 40.0491 38.3223H42.0861V43.0405C36.4194 42.7117 32.6511 42.2416 31.7295 41.8452C31.5461 41.5749 31.2374 41.3977 30.8869 41.3977C30.3247 41.3977 29.8699 41.8572 29.8699 42.4233V52.6738C29.8699 52.881 29.931 53.0837 30.0474 53.2534L35.5903 61.4015V61.4045L35.8363 61.7634C35.8304 61.7634 35.8229 61.7634 35.8169 61.7649L37.2202 64.0009C37.4737 64.082 37.7213 64.1887 37.9599 64.3208L40.1415 65.5297C41.9966 66.5583 44.2126 66.5583 46.0677 65.5297L48.2494 64.3208C49.4901 63.6345 50.9709 63.6345 52.2116 64.3208L54.3933 65.5297C56.2469 66.5568 58.4628 66.5568 60.3194 65.5297L62.5011 64.3208C63.7418 63.6345 65.2241 63.6345 66.4648 64.3208L68.645 65.5297C70.5001 66.5568 72.7161 66.5568 74.5711 65.5297L76.7528 64.3208C76.9705 64.2007 77.1957 64.1016 77.4254 64.0235L78.9002 61.7649C78.9002 61.7649 78.8838 61.7634 78.8763 61.7634L79.4892 60.8624L84.6653 53.2534C84.7801 53.0837 84.8428 52.881 84.8428 52.6738V42.4233C84.8428 41.8572 84.3865 41.3977 83.8243 41.3977ZM73.6436 37.2966H76.6976V42.7552C75.7671 42.8333 74.7441 42.9084 73.6436 42.9775V37.2966ZM44.1216 38.3223H63.4644V43.3844C61.5228 43.4235 59.4903 43.4475 57.3563 43.4475C52.3905 43.4475 47.9138 43.3288 44.1216 43.1471V38.3223ZM82.8057 52.3569L75.9446 62.4422C75.8879 62.4722 75.8268 62.4933 75.7701 62.5248L73.5899 63.7336C72.3492 64.4214 70.8669 64.4214 69.6262 63.7336L67.4445 62.5248C65.5894 61.4961 63.3735 61.4961 61.5184 62.5248L59.3367 63.7336C58.096 64.4214 56.6137 64.4214 55.373 63.7336L53.1913 62.5248C51.3362 61.4977 49.1217 61.4977 47.2666 62.5248L45.0835 63.7336C43.8443 64.4214 42.362 64.4214 41.1213 63.7336L38.9396 62.5248C38.8829 62.4933 38.8233 62.4722 38.7666 62.4422L31.9054 52.3569V44.0226C33.2326 44.3425 35.4113 44.6263 38.9858 44.8951C44.0814 45.2795 50.777 45.4988 57.3563 45.4988C63.9357 45.4988 70.6313 45.278 75.7254 44.8951C79.2999 44.6263 81.48 44.3425 82.8057 44.0226V52.3569ZM74.6621 50.624H72.6266C72.0644 50.624 71.6081 51.0835 71.6081 51.6496C71.6081 52.2158 72.0644 52.6738 72.6266 52.6738H74.6621C75.2243 52.6738 75.6806 52.2158 75.6806 51.6496C75.6806 51.0835 75.2243 50.624 74.6621 50.624ZM69.5725 50.624H67.5355C66.9733 50.624 66.5185 51.0835 66.5185 51.6496C66.5185 52.2158 66.9733 52.6738 67.5355 52.6738H69.5725C70.1347 52.6738 70.5896 52.2158 70.5896 51.6496C70.5896 51.0835 70.1347 50.624 69.5725 50.624ZM68.554 47.5486C68.554 46.9824 68.0977 46.5229 67.5355 46.5229H65.5C64.9378 46.5229 64.4815 46.9824 64.4815 47.5486C64.4815 48.1147 64.9378 48.5742 65.5 48.5742H67.5355C68.0977 48.5742 68.554 48.1147 68.554 47.5486ZM64.4815 50.624H62.4459C61.8837 50.624 61.4274 51.0835 61.4274 51.6496C61.4274 52.2158 61.8837 52.6738 62.4459 52.6738H64.4815C65.0437 52.6738 65.5 52.2158 65.5 51.6496C65.5 51.0835 65.0437 50.624 64.4815 50.624ZM63.4644 47.5486C63.4644 46.9824 63.0081 46.5229 62.4459 46.5229H60.4104C59.8482 46.5229 59.3919 46.9824 59.3919 47.5486C59.3919 48.1147 59.8482 48.5742 60.4104 48.5742H62.4459C63.0081 48.5742 63.4644 48.1147 63.4644 47.5486ZM59.3919 42.4233C59.9541 42.4233 60.4104 41.9638 60.4104 41.3977V40.372C60.4104 39.8059 59.9541 39.3479 59.3919 39.3479C58.8297 39.3479 58.3734 39.8059 58.3734 40.372V41.3977C58.3734 41.9638 58.8297 42.4233 59.3919 42.4233ZM59.3919 50.624H57.3563C56.7941 50.624 56.3378 51.0835 56.3378 51.6496C56.3378 52.2158 56.7941 52.6738 57.3563 52.6738H59.3919C59.9541 52.6738 60.4104 52.2158 60.4104 51.6496C60.4104 51.0835 59.9541 50.624 59.3919 50.624ZM58.3734 47.5486C58.3734 46.9824 57.9185 46.5229 57.3563 46.5229H55.3193C54.7571 46.5229 54.3023 46.9824 54.3023 47.5486C54.3023 48.1147 54.7571 48.5742 55.3193 48.5742H57.3563C57.9185 48.5742 58.3734 48.1147 58.3734 47.5486ZM57.3563 40.372C57.3563 39.8059 56.9 39.3479 56.3378 39.3479C55.7756 39.3479 55.3193 39.8059 55.3193 40.372V41.3977C55.3193 41.9638 55.7756 42.4233 56.3378 42.4233C56.9 42.4233 57.3563 41.9638 57.3563 41.3977V40.372ZM54.3023 50.624H52.2653C51.7031 50.624 51.2482 51.0835 51.2482 51.6496C51.2482 52.2158 51.7031 52.6738 52.2653 52.6738H54.3023C54.8645 52.6738 55.3193 52.2158 55.3193 51.6496C55.3193 51.0835 54.8645 50.624 54.3023 50.624ZM53.2838 39.3479C52.7216 39.3479 52.2653 39.8059 52.2653 40.372V41.3977C52.2653 41.9638 52.7216 42.4233 53.2838 42.4233C53.846 42.4233 54.3023 41.9638 54.3023 41.3977V40.372C54.3023 39.8059 53.846 39.3479 53.2838 39.3479ZM50.2297 48.5742H52.2653C52.8275 48.5742 53.2838 48.1147 53.2838 47.5486C53.2838 46.9824 52.8275 46.5229 52.2653 46.5229H50.2297C49.6675 46.5229 49.2112 46.9824 49.2112 47.5486C49.2112 48.1147 49.6675 48.5742 50.2297 48.5742ZM50.2297 39.3479C49.6675 39.3479 49.2112 39.8059 49.2112 40.372V41.3977C49.2112 41.9638 49.6675 42.4233 50.2297 42.4233C50.7919 42.4233 51.2482 41.9638 51.2482 41.3977V40.372C51.2482 39.8059 50.7919 39.3479 50.2297 39.3479ZM47.1757 39.3479C46.6135 39.3479 46.1572 39.8059 46.1572 40.372V41.3977C46.1572 41.9638 46.6135 42.4233 47.1757 42.4233C47.7379 42.4233 48.1942 41.9638 48.1942 41.3977V40.372C48.1942 39.8059 47.7379 39.3479 47.1757 39.3479ZM45.1401 48.5742H47.1757C47.7379 48.5742 48.1942 48.1147 48.1942 47.5486C48.1942 46.9824 47.7379 46.5229 47.1757 46.5229H45.1401C44.5779 46.5229 44.1216 46.9824 44.1216 47.5486C44.1216 48.1147 44.5779 48.5742 45.1401 48.5742ZM40.0491 48.5742H42.0861C42.6483 48.5742 43.1031 48.1147 43.1031 47.5486C43.1031 46.9824 42.6483 46.5229 42.0861 46.5229H40.0491C39.4869 46.5229 39.032 46.9824 39.032 47.5486C39.032 48.1147 39.4869 48.5742 40.0491 48.5742ZM47.1757 39.3479C46.6135 39.3479 46.1572 39.8059 46.1572 40.372V41.3977C46.1572 41.9638 46.6135 42.4233 47.1757 42.4233C47.7379 42.4233 48.1942 41.9638 48.1942 41.3977V40.372C48.1942 39.8059 47.7379 39.3479 47.1757 39.3479ZM50.2297 39.3479C49.6675 39.3479 49.2112 39.8059 49.2112 40.372V41.3977C49.2112 41.9638 49.6675 42.4233 50.2297 42.4233C50.7919 42.4233 51.2482 41.9638 51.2482 41.3977V40.372C51.2482 39.8059 50.7919 39.3479 50.2297 39.3479ZM53.2838 39.3479C52.7216 39.3479 52.2653 39.8059 52.2653 40.372V41.3977C52.2653 41.9638 52.7216 42.4233 53.2838 42.4233C53.846 42.4233 54.3023 41.9638 54.3023 41.3977V40.372C54.3023 39.8059 53.846 39.3479 53.2838 39.3479ZM56.3378 39.3479C55.7756 39.3479 55.3193 39.8059 55.3193 40.372V41.3977C55.3193 41.9638 55.7756 42.4233 56.3378 42.4233C56.9 42.4233 57.3563 41.9638 57.3563 41.3977V40.372C57.3563 39.8059 56.9 39.3479 56.3378 39.3479ZM59.3919 39.3479C58.8297 39.3479 58.3734 39.8059 58.3734 40.372V41.3977C58.3734 41.9638 58.8297 42.4233 59.3919 42.4233C59.9541 42.4233 60.4104 41.9638 60.4104 41.3977V40.372C60.4104 39.8059 59.9541 39.3479 59.3919 39.3479ZM42.0861 46.5229H40.0491C39.4869 46.5229 39.032 46.9824 39.032 47.5486C39.032 48.1147 39.4869 48.5742 40.0491 48.5742H42.0861C42.6483 48.5742 43.1031 48.1147 43.1031 47.5486C43.1031 46.9824 42.6483 46.5229 42.0861 46.5229ZM47.1757 46.5229H45.1401C44.5779 46.5229 44.1216 46.9824 44.1216 47.5486C44.1216 48.1147 44.5779 48.5742 45.1401 48.5742H47.1757C47.7379 48.5742 48.1942 48.1147 48.1942 47.5486C48.1942 46.9824 47.7379 46.5229 47.1757 46.5229ZM52.2653 46.5229H50.2297C49.6675 46.5229 49.2112 46.9824 49.2112 47.5486C49.2112 48.1147 49.6675 48.5742 50.2297 48.5742H52.2653C52.8275 48.5742 53.2838 48.1147 53.2838 47.5486C53.2838 46.9824 52.8275 46.5229 52.2653 46.5229ZM54.3023 50.624H52.2653C51.7031 50.624 51.2482 51.0835 51.2482 51.6496C51.2482 52.2158 51.7031 52.6738 52.2653 52.6738H54.3023C54.8645 52.6738 55.3193 52.2158 55.3193 51.6496C55.3193 51.0835 54.8645 50.624 54.3023 50.624ZM57.3563 46.5229H55.3193C54.7571 46.5229 54.3023 46.9824 54.3023 47.5486C54.3023 48.1147 54.7571 48.5742 55.3193 48.5742H57.3563C57.9185 48.5742 58.3734 48.1147 58.3734 47.5486C58.3734 46.9824 57.9185 46.5229 57.3563 46.5229ZM59.3919 50.624H57.3563C56.7941 50.624 56.3378 51.0835 56.3378 51.6496C56.3378 52.2158 56.7941 52.6738 57.3563 52.6738H59.3919C59.9541 52.6738 60.4104 52.2158 60.4104 51.6496C60.4104 51.0835 59.9541 50.624 59.3919 50.624ZM62.4459 46.5229H60.4104C59.8482 46.5229 59.3919 46.9824 59.3919 47.5486C59.3919 48.1147 59.8482 48.5742 60.4104 48.5742H62.4459C63.0081 48.5742 63.4644 48.1147 63.4644 47.5486C63.4644 46.9824 63.0081 46.5229 62.4459 46.5229ZM64.4815 50.624H62.4459C61.8837 50.624 61.4274 51.0835 61.4274 51.6496C61.4274 52.2158 61.8837 52.6738 62.4459 52.6738H64.4815C65.0437 52.6738 65.5 52.2158 65.5 51.6496C65.5 51.0835 65.0437 50.624 64.4815 50.624ZM67.5355 46.5229H65.5C64.9378 46.5229 64.4815 46.9824 64.4815 47.5486C64.4815 48.1147 64.9378 48.5742 65.5 48.5742H67.5355C68.0977 48.5742 68.554 48.1147 68.554 47.5486C68.554 46.9824 68.0977 46.5229 67.5355 46.5229ZM69.5725 50.624H67.5355C66.9733 50.624 66.5185 51.0835 66.5185 51.6496C66.5185 52.2158 66.9733 52.6738 67.5355 52.6738H69.5725C70.1347 52.6738 70.5896 52.2158 70.5896 51.6496C70.5896 51.0835 70.1347 50.624 69.5725 50.624ZM74.6621 50.624H72.6266C72.0644 50.624 71.6081 51.0835 71.6081 51.6496C71.6081 52.2158 72.0644 52.6738 72.6266 52.6738H74.6621C75.2243 52.6738 75.6806 52.2158 75.6806 51.6496C75.6806 51.0835 75.2243 50.624 74.6621 50.624ZM73.5899 68.8589C72.3492 69.5466 70.8669 69.5466 69.6262 68.8589L67.446 67.6515C65.5909 66.6229 63.375 66.6214 61.5199 67.6515L59.3382 68.8589C58.0975 69.5466 56.6152 69.5466 55.3745 68.8589L53.1928 67.6515C51.3377 66.6229 49.1217 66.6229 47.2666 67.6515L45.085 68.8589C43.8458 69.5466 42.3635 69.5466 41.1228 68.8589L39.8105 68.1336L41.7849 71.2811C43.2209 71.6009 44.7375 71.3922 46.0677 70.6549L48.2494 69.4475C49.4901 68.7598 50.9709 68.7598 52.2116 69.4475L54.3933 70.6549C56.2469 71.682 58.4628 71.6835 60.3194 70.6549L62.5011 69.4475C63.7418 68.7598 65.2241 68.7598 66.4648 69.4475L68.645 70.6549C69.8917 71.3441 71.3009 71.5724 72.6534 71.3336L74.6532 68.2702L73.5899 68.8589ZM47.1757 46.5229H45.1401C44.5779 46.5229 44.1216 46.9824 44.1216 47.5486C44.1216 48.1147 44.5779 48.5742 45.1401 48.5742H47.1757C47.7379 48.5742 48.1942 48.1147 48.1942 47.5486C48.1942 46.9824 47.7379 46.5229 47.1757 46.5229ZM42.0861 46.5229H40.0491C39.4869 46.5229 39.032 46.9824 39.032 47.5486C39.032 48.1147 39.4869 48.5742 40.0491 48.5742H42.0861C42.6483 48.5742 43.1031 48.1147 43.1031 47.5486C43.1031 46.9824 42.6483 46.5229 42.0861 46.5229ZM52.2653 46.5229H50.2297C49.6675 46.5229 49.2112 46.9824 49.2112 47.5486C49.2112 48.1147 49.6675 48.5742 50.2297 48.5742H52.2653C52.8275 48.5742 53.2838 48.1147 53.2838 47.5486C53.2838 46.9824 52.8275 46.5229 52.2653 46.5229ZM57.3563 46.5229H55.3193C54.7571 46.5229 54.3023 46.9824 54.3023 47.5486C54.3023 48.1147 54.7571 48.5742 55.3193 48.5742H57.3563C57.9185 48.5742 58.3734 48.1147 58.3734 47.5486C58.3734 46.9824 57.9185 46.5229 57.3563 46.5229ZM62.4459 46.5229H60.4104C59.8482 46.5229 59.3919 46.9824 59.3919 47.5486C59.3919 48.1147 59.8482 48.5742 60.4104 48.5742H62.4459C63.0081 48.5742 63.4644 48.1147 63.4644 47.5486C63.4644 46.9824 63.0081 46.5229 62.4459 46.5229ZM67.5355 46.5229H65.5C64.9378 46.5229 64.4815 46.9824 64.4815 47.5486C64.4815 48.1147 64.9378 48.5742 65.5 48.5742H67.5355C68.0977 48.5742 68.554 48.1147 68.554 47.5486C68.554 46.9824 68.0977 46.5229 67.5355 46.5229ZM54.3023 50.624H52.2653C51.7031 50.624 51.2482 51.0835 51.2482 51.6496C51.2482 52.2158 51.7031 52.6738 52.2653 52.6738H54.3023C54.8645 52.6738 55.3193 52.2158 55.3193 51.6496C55.3193 51.0835 54.8645 50.624 54.3023 50.624ZM59.3919 50.624H57.3563C56.7941 50.624 56.3378 51.0835 56.3378 51.6496C56.3378 52.2158 56.7941 52.6738 57.3563 52.6738H59.3919C59.9541 52.6738 60.4104 52.2158 60.4104 51.6496C60.4104 51.0835 59.9541 50.624 59.3919 50.624ZM64.4815 50.624H62.4459C61.8837 50.624 61.4274 51.0835 61.4274 51.6496C61.4274 52.2158 61.8837 52.6738 62.4459 52.6738H64.4815C65.0437 52.6738 65.5 52.2158 65.5 51.6496C65.5 51.0835 65.0437 50.624 64.4815 50.624ZM69.5725 50.624H67.5355C66.9733 50.624 66.5185 51.0835 66.5185 51.6496C66.5185 52.2158 66.9733 52.6738 67.5355 52.6738H69.5725C70.1347 52.6738 70.5896 52.2158 70.5896 51.6496C70.5896 51.0835 70.1347 50.624 69.5725 50.624ZM74.6621 50.624H72.6266C72.0644 50.624 71.6081 51.0835 71.6081 51.6496C71.6081 52.2158 72.0644 52.6738 72.6266 52.6738H74.6621C75.2243 52.6738 75.6806 52.2158 75.6806 51.6496C75.6806 51.0835 75.2243 50.624 74.6621 50.624ZM47.1757 39.3479C46.6135 39.3479 46.1572 39.8059 46.1572 40.372V41.3977C46.1572 41.9638 46.6135 42.4233 47.1757 42.4233C47.7379 42.4233 48.1942 41.9638 48.1942 41.3977V40.372C48.1942 39.8059 47.7379 39.3479 47.1757 39.3479ZM50.2297 39.3479C49.6675 39.3479 49.2112 39.8059 49.2112 40.372V41.3977C49.2112 41.9638 49.6675 42.4233 50.2297 42.4233C50.7919 42.4233 51.2482 41.9638 51.2482 41.3977V40.372C51.2482 39.8059 50.7919 39.3479 50.2297 39.3479ZM53.2838 39.3479C52.7216 39.3479 52.2653 39.8059 52.2653 40.372V41.3977C52.2653 41.9638 52.7216 42.4233 53.2838 42.4233C53.846 42.4233 54.3023 41.9638 54.3023 41.3977V40.372C54.3023 39.8059 53.846 39.3479 53.2838 39.3479ZM56.3378 39.3479C55.7756 39.3479 55.3193 39.8059 55.3193 40.372V41.3977C55.3193 41.9638 55.7756 42.4233 56.3378 42.4233C56.9 42.4233 57.3563 41.9638 57.3563 41.3977V40.372C57.3563 39.8059 56.9 39.3479 56.3378 39.3479ZM59.3919 39.3479C58.8297 39.3479 58.3734 39.8059 58.3734 40.372V41.3977C58.3734 41.9638 58.8297 42.4233 59.3919 42.4233C59.9541 42.4233 60.4104 41.9638 60.4104 41.3977V40.372C60.4104 39.8059 59.9541 39.3479 59.3919 39.3479Z" fill="#E9FEFF"/>
</svg>
