<svg width="391" height="110" viewBox="0 0 391 110" fill="none" xmlns="http://www.w3.org/2000/svg">
<path fill-rule="evenodd" clip-rule="evenodd" d="M-163.776 5.01693C-163.85 5.0162 -163.925 5.01583 -164 5.01583V0.958191C-158.422 0.958191 -155.503 2.74626 -152.931 4.32332C-150.507 5.80842 -148.413 7.09063 -143.98 7.09063C-139.548 7.09063 -137.456 5.80935 -135.034 4.32494L-135.031 4.32332L-135.03 4.32248C-132.455 2.74562 -129.536 0.958191 -123.962 0.958191C-118.387 0.958191 -115.465 2.74626 -112.893 4.32332C-110.469 5.80842 -108.375 7.09063 -103.942 7.09063C-99.5095 7.09063 -97.4184 5.80935 -94.9958 4.32495L-94.9931 4.32332L-94.9917 4.32248C-92.4168 2.74562 -89.4981 0.958191 -83.9239 0.958191C-78.3497 0.958191 -75.4309 2.74562 -72.856 4.32248L-72.8547 4.32332C-70.4309 5.80842 -68.3372 7.09063 -63.9062 7.09063C-59.4765 7.09063 -57.3827 5.80914 -54.9571 4.32457L-54.9551 4.32332L-54.9537 4.32248C-52.3788 2.74561 -49.46 0.958191 -43.8858 0.958191C-38.3116 0.958191 -35.3929 2.74562 -32.818 4.32248L-32.8166 4.32332C-30.3928 5.80842 -28.2991 7.09063 -23.8681 7.09063C-19.4372 7.09063 -17.3435 5.80842 -14.9197 4.32332L-14.9183 4.32247C-12.3434 2.74561 -9.42467 0.958191 -3.85048 0.958191C1.72472 0.958191 4.64621 2.74626 7.21875 4.32332C9.64252 5.80842 11.7363 7.09063 16.1699 7.09063C20.6019 7.09063 22.6931 5.80934 25.1157 4.32492L25.1183 4.32332L25.1198 4.32246C27.6947 2.7456 30.6134 0.958191 36.1876 0.958191C41.7618 0.958191 44.6806 2.74563 47.2554 4.3225L47.2568 4.32332C49.6806 5.80842 51.7743 7.09063 56.2052 7.09063C60.6362 7.09063 62.7299 5.80842 65.1537 4.32332L65.1551 4.32248C67.73 2.74562 70.6487 0.958191 76.2229 0.958191C81.7981 0.958191 84.7196 2.74626 87.2922 4.32332C89.7159 5.80842 91.8096 7.09063 96.2406 7.09063C100.672 7.09063 102.768 5.80842 105.192 4.32332L105.193 4.32247C107.768 2.74561 110.687 0.958191 116.261 0.958191C121.836 0.958191 124.758 2.74626 127.33 4.32332C129.754 5.80842 131.848 7.09063 136.281 7.09063C140.715 7.09063 142.809 5.80842 145.233 4.32332L145.234 4.32244C147.809 2.74559 150.728 0.958191 156.302 0.958191C161.877 0.958191 164.798 2.74626 167.371 4.32332C169.795 5.80842 171.888 7.09063 176.322 7.09063C180.756 7.09063 182.85 5.80842 185.273 4.32332L185.275 4.3225C187.85 2.74563 190.768 0.958191 196.342 0.958191C201.918 0.958191 204.839 2.74626 207.412 4.32332C209.836 5.80842 211.929 7.09063 216.363 7.09063C220.795 7.09063 222.886 5.80934 225.309 4.32492L225.311 4.32332L225.313 4.32244C227.888 2.74559 230.806 0.958191 236.381 0.958191C241.956 0.958191 244.877 2.74626 247.45 4.32332C249.874 5.80842 251.967 7.09063 256.401 7.09063C260.831 7.09063 262.922 5.81071 265.346 4.3273L265.352 4.32332L265.353 4.32252C267.928 2.74565 270.847 0.958191 276.421 0.958191C281.997 0.958191 284.918 2.74626 287.491 4.32332C289.914 5.80842 292.008 7.09063 296.442 7.09063C300.875 7.09063 302.969 5.80842 305.393 4.32332L305.394 4.32247C307.969 2.74561 310.888 0.958191 316.462 0.958191C322.037 0.958191 324.959 2.74626 327.531 4.32332C329.955 5.80842 332.049 7.09063 336.482 7.09063C340.916 7.09063 343.01 5.80842 345.434 4.32332L345.435 4.32249C348.01 2.74563 350.929 0.958191 356.503 0.958191C362.078 0.958191 365 2.74626 367.572 4.32332C369.996 5.80842 372.09 7.09063 376.523 7.09063C380.957 7.09063 383.051 5.80842 385.474 4.32332L385.476 4.32244C388.051 2.74559 390.969 0.958191 396.544 0.958191C402.119 0.958191 405.04 2.74626 407.613 4.32332C410.037 5.80842 412.13 7.09063 416.564 7.09063C420.998 7.09063 423.091 5.80842 425.515 4.32332L425.517 4.32244C428.091 2.74559 431.01 0.958191 436.584 0.958191C442.16 0.958191 445.081 2.74626 447.656 4.32332C450.08 5.80842 452.174 7.09063 456.607 7.09063C461.039 7.09063 463.131 5.80934 465.553 4.32492L465.556 4.32332L465.557 4.32244C468.132 2.74559 471.051 0.958191 476.625 0.958191C482.2 0.958191 485.122 2.74626 487.694 4.32332C490.118 5.80842 492.212 7.09063 496.643 7.09063C501.074 7.09063 503.17 5.80842 505.594 4.32332L505.595 4.32244C508.17 2.74559 511.089 0.958191 516.663 0.958191C522.238 0.958191 525.16 2.74626 527.735 4.32332C530.159 5.80842 532.253 7.09063 536.686 7.09063C541.12 7.09063 543.214 5.80842 545.637 4.32332L545.639 4.32255C548.214 2.74567 551.132 0.958191 556.709 0.958191C562.287 0.958191 565.206 2.74626 567.779 4.32332C570.202 5.80842 572.296 7.09063 576.73 7.09063C581.163 7.09063 583.257 5.80842 585.681 4.32332L585.682 4.32244C588.257 2.74559 591.176 0.958191 596.753 0.958191C602.33 0.958191 605.248 2.74559 607.823 4.32244L607.825 4.32332C610.248 5.80842 612.342 7.09063 616.776 7.09063C621.21 7.09063 623.303 5.80842 625.727 4.32332L625.728 4.32255C628.303 2.74567 631.222 0.958191 636.796 0.958191C642.371 0.958191 645.293 2.74626 647.868 4.32332C650.292 5.80842 652.386 7.09063 656.819 7.09063C661.253 7.09063 663.347 5.80842 665.771 4.32332L665.772 4.32249C668.347 2.74563 671.266 0.958191 676.842 0.958191C682.419 0.958191 685.338 2.74567 687.913 4.32255L687.914 4.32332C690.338 5.80842 692.432 7.09063 696.865 7.09063C701.299 7.09063 703.393 5.80842 705.817 4.32332L705.818 4.32244C708.393 2.74559 711.312 0.958191 716.889 0.958191V5.01583C716.846 5.01583 716.803 5.01595 716.76 5.01619V409.752H-163.776V5.01693Z" fill="#E9FEFF"/>
</svg>
