<svg width="63" height="91" viewBox="0 0 63 91" fill="none" xmlns="http://www.w3.org/2000/svg">
<path d="M27.0419 70.4866V61.5295C26.6722 61.4569 26.3231 61.3827 25.974 61.3205C24.1856 60.9941 22.4349 60.5294 20.7239 59.9059C18.0171 58.9197 15.5099 57.5639 13.2055 55.8315C11.092 54.2425 9.23306 52.391 7.59594 50.3132C6.24428 48.5981 5.06115 46.7725 4.08266 44.8173C3.08009 42.8104 2.31829 40.7153 1.79035 38.5322C1.07325 35.5683 0.849687 32.5648 0.978662 29.5232C1.08184 27.0672 1.48597 24.6612 2.16524 22.3054C2.67426 20.5385 3.36728 18.8407 4.2168 17.2068C5.08523 15.5366 6.09811 13.9631 7.25373 12.4829C8.71888 10.609 10.3698 8.91115 12.1909 7.38432C13.5976 6.20466 15.0988 5.16145 16.6913 4.2495C18.9148 2.9783 21.2742 2.03527 23.7505 1.4083C25.8485 0.876335 27.986 0.587897 30.1528 0.508447C32.6653 0.416907 35.1519 0.587897 37.6231 1.06632C40.1785 1.5603 42.6152 2.39797 44.9402 3.55863C46.5688 4.37041 48.1027 5.3428 49.5524 6.44647C51.4543 7.89384 53.1774 9.53293 54.7423 11.3413C56.3726 13.2256 57.7707 15.2706 58.8953 17.4969C59.8945 19.4728 60.658 21.5368 61.1808 23.6957C61.9873 27.0154 62.2091 30.3799 61.9581 33.7773C61.8463 35.2937 61.6055 36.7929 61.2616 38.2765C60.8454 40.0711 60.2676 41.8086 59.5247 43.4909C58.6185 45.5428 57.4955 47.4668 56.1765 49.2804C55.088 50.7778 53.8911 52.1803 52.5549 53.4601C50.8473 55.0958 48.9814 56.5189 46.935 57.7072C45.7416 58.3998 44.5103 59.013 43.236 59.5277C41.6024 60.1892 39.924 60.7194 38.1957 61.0752C37.4425 61.2307 36.6893 61.3792 35.9068 61.5364V70.4883C36.0719 70.4883 36.2336 70.4883 36.3935 70.4883C39.3376 70.4883 42.2816 70.4883 45.2257 70.4883C45.3908 70.4883 45.5559 70.4831 45.721 70.4987C46.3452 70.5522 46.7545 70.9719 46.8026 71.5972C46.8112 71.7215 46.8095 71.8459 46.8095 71.9702C46.8095 73.9323 46.7837 75.8961 46.8198 77.8564C46.8405 78.9014 46.2455 79.3574 45.3444 79.3487C42.3728 79.3194 39.4012 79.3384 36.4296 79.3384H35.8965C35.8879 79.5335 35.8759 79.6924 35.8759 79.8531C35.8759 82.7685 35.8759 85.684 35.8759 88.6012C35.8759 88.7255 35.8759 88.8499 35.8759 88.9743C35.8673 89.8551 35.458 90.2783 34.5896 90.28C32.5122 90.2835 30.4348 90.2835 28.3575 90.28C27.4925 90.28 27.0695 89.8499 27.0677 88.9743C27.0643 85.9483 27.0677 82.9222 27.0677 79.8945C27.0677 79.7304 27.0677 79.5663 27.0677 79.3539C26.8786 79.3487 26.7186 79.3401 26.557 79.3401C23.5716 79.3401 20.5863 79.3401 17.601 79.3401C17.2949 79.3401 16.9991 79.3194 16.7343 79.1346C16.4453 78.9342 16.2717 78.6682 16.2304 78.3176C16.2166 78.195 16.2115 78.0689 16.2115 77.9463C16.2115 75.9151 16.2115 73.8839 16.2115 71.8528C16.2115 71.7699 16.2115 71.687 16.2184 71.6041C16.2699 70.9788 16.6792 70.5591 17.3 70.5004C17.4496 70.4866 17.6027 70.4901 17.754 70.4901C20.6843 70.4901 23.6146 70.4901 26.545 70.4901C26.7066 70.4901 26.8683 70.4901 27.0437 70.4901L27.0419 70.4866ZM9.72661 31.3005C9.74037 32.6339 9.86075 34.0761 10.1307 35.5062C10.6071 38.0313 11.5116 40.3854 12.8684 42.5634C13.9467 44.294 15.2502 45.8381 16.7377 47.225C19.3516 49.6603 22.3318 51.4324 25.8107 52.3288C27.1348 52.6708 28.4727 52.904 29.8312 52.9955C32.9834 53.2097 36.0599 52.8435 39.0383 51.745C41.2 50.9471 43.1587 49.7968 44.9506 48.3511C46.414 47.1698 47.7244 45.8364 48.8766 44.3458C50.3727 42.4079 51.5128 40.2801 52.254 37.9397C52.9057 35.8844 53.2101 33.7738 53.2548 31.6217C53.2995 29.468 53.0674 27.3435 52.5136 25.264C52.0063 23.3607 51.2308 21.5661 50.1904 19.8908C48.8903 17.7992 47.2738 15.9856 45.4166 14.3828C43.7365 12.9337 41.8792 11.7644 39.8328 10.9129C37.8621 10.0925 35.8054 9.61065 33.6833 9.42584C30.3936 9.13913 27.1761 9.46039 24.0532 10.583C22.1237 11.2774 20.3456 12.255 18.7084 13.4899C17.2175 14.6143 15.8847 15.9027 14.6844 17.3363C13.104 19.2241 11.8607 21.3105 11.0181 23.6284C10.1325 26.0672 9.73693 28.5923 9.72318 31.3039L9.72661 31.3005Z" fill="#A7BCBD"/>
</svg>
