<svg width="83" height="83" viewBox="0 0 83 83" fill="currentColor" xmlns="http://www.w3.org/2000/svg">
<path d="M55.2374 20.9085C58.6824 17.4773 62.116 14.0056 65.5668 10.5494C65.5514 10.5146 65.5361 10.4799 65.5188 10.4471C65.3553 10.4471 65.1919 10.4471 65.0304 10.4471C62.9696 10.4471 60.9087 10.4471 58.8478 10.4471C58.6651 10.4471 58.4729 10.4528 58.2979 10.4046C57.7616 10.254 57.429 9.89869 57.3425 9.33681C57.3194 9.1862 57.3213 9.0298 57.3213 8.87533C57.3213 6.63553 57.3213 4.39573 57.3213 2.15592C57.3213 2.00145 57.3213 1.84505 57.3406 1.69445C57.4155 1.13063 57.775 0.729014 58.3268 0.60737C58.519 0.564891 58.7228 0.551375 58.9208 0.551375C66.2262 0.549444 73.5316 0.549444 80.837 0.551375C81.035 0.551375 81.2388 0.564891 81.4311 0.60737C81.9674 0.723222 82.2885 1.06885 82.4 1.60176C82.4384 1.78134 82.4442 1.97056 82.4442 2.15399C82.4461 9.49128 82.4442 16.8305 82.4442 24.1678C82.4442 24.3068 82.4442 24.4458 82.4269 24.5829C82.3365 25.2664 81.8828 25.697 81.2023 25.7511C81.0793 25.7607 80.9562 25.7569 80.8332 25.7569C78.6185 25.7569 76.4038 25.7569 74.1891 25.7569C74.0968 25.7569 74.0045 25.7588 73.9123 25.7549C73.1144 25.7163 72.63 25.2297 72.6127 24.4284C72.6012 23.826 72.6088 23.2236 72.6088 22.6212C72.6088 21.0765 72.6088 19.5318 72.6088 17.9871V17.5179C72.2974 17.6608 69.1426 20.783 67.3105 22.6733C65.6091 24.4284 63.8654 26.145 62.1506 27.8673C62.7542 28.7767 63.3521 29.636 63.9058 30.5242C65.2592 32.6887 66.3397 34.9883 67.1548 37.4116C67.9738 39.8483 68.4947 42.3507 68.7427 44.9149C69.0426 48.0082 68.9446 51.0821 68.4755 54.1522C68.0084 57.2106 67.1221 60.1378 65.8091 62.9337C63.8616 67.0812 61.1163 70.6321 57.7846 73.7427C55.7045 75.6852 53.4302 77.3631 50.9464 78.7456C48.7606 79.962 46.4613 80.9178 44.0467 81.5685C39.4769 82.8004 34.8438 83.1035 30.1472 82.5069C26.3272 82.0203 22.6995 80.9275 19.2775 79.1549C16.836 77.8902 14.5944 76.3204 12.5239 74.5093C10.6418 72.8622 8.93077 71.0511 7.40625 69.0662C5.76638 66.9306 4.39182 64.6348 3.30562 62.1652C2.15021 59.5354 1.37353 56.7955 0.939055 53.961C0.6007 51.7424 0.508421 49.5065 0.575708 47.2609C0.621847 45.6988 0.746808 44.1445 1.00442 42.6056C1.45236 39.9314 2.20212 37.344 3.28832 34.857C5.32614 30.1979 8.34634 26.2686 12.0856 22.8722C13.9619 21.1691 15.992 19.6766 18.1971 18.4292C20.2118 17.29 22.3246 16.3767 24.5355 15.6913C28.5669 14.4401 32.6925 14.0365 36.8874 14.2663C40.1594 14.4459 43.345 15.0792 46.4344 16.201C49.4334 17.29 52.2056 18.7961 54.7914 20.6613C54.8913 20.7328 54.9913 20.8042 55.0951 20.8718C55.1201 20.8872 55.1528 20.893 55.2316 20.9181L55.2374 20.9085ZM34.7188 72.9974C35.7166 72.9337 36.7144 72.8796 37.7102 72.8005C38.1389 72.7657 38.5638 72.6865 38.9867 72.6151C41.5532 72.1787 43.9871 71.3484 46.2671 70.0799C47.9281 69.1569 49.4546 68.0467 50.8599 66.7626C53.8878 63.9976 56.2448 60.7731 57.6597 56.8843C58.4864 54.6156 58.9208 52.2734 59.0496 49.8714C59.1458 48.0777 59.0516 46.2935 58.7939 44.5133C58.371 41.6015 57.4117 38.8868 55.9506 36.3496C54.9778 34.6582 53.7898 33.127 52.4517 31.7097C49.7852 28.8868 46.6901 26.7204 43.0277 25.3997C41.7512 24.9401 40.4439 24.5868 39.1059 24.3744C36.3702 23.9419 33.6288 23.909 30.8816 24.3068C27.9363 24.7316 25.1891 25.7144 22.6303 27.2224C20.2638 28.6165 18.2163 30.4064 16.3977 32.4628C14.7213 34.3569 13.3525 36.45 12.347 38.7806C11.3358 41.1266 10.7379 43.5691 10.536 46.1159C10.2534 49.6841 10.5687 53.1751 11.7318 56.5793C12.5892 59.0875 13.86 61.3659 15.4922 63.4396C17.0052 65.3608 18.7508 67.0484 20.7213 68.4966C22.4938 69.7999 24.4144 70.8348 26.4791 71.5743C29.1379 72.5263 31.8889 72.9781 34.7169 72.9955L34.7188 72.9974Z" fill="#A7BCBD"/>
</svg>
