<svg width="49" height="49" viewBox="0 0 49 49" fill="none" xmlns="http://www.w3.org/2000/svg">
<path fill-rule="evenodd" clip-rule="evenodd" d="M18.5 10.5352C18.5 7.22145 21.1863 4.53516 24.5 4.53516C27.8137 4.53516 30.5 7.22145 30.5 10.5352C30.5 12.6163 29.4404 14.4499 27.8314 15.5261C27.7737 15.5559 27.7196 15.591 27.6694 15.6307C26.7497 16.204 25.6635 16.5352 24.5 16.5352C21.1863 16.5352 18.5 13.8489 18.5 10.5352ZM27.4861 17.9592C26.5635 18.3307 25.5556 18.5352 24.5 18.5352C23.4448 18.5352 22.4373 18.3309 21.515 17.9597L20.7644 23.6102L23.9855 21.6775C24.3022 21.4875 24.6978 21.4875 25.0145 21.6775L28.2359 23.6104L27.4861 17.9592ZM19.6395 16.8898C17.7308 15.4278 16.5 13.1252 16.5 10.5352C16.5 6.11688 20.0817 2.53516 24.5 2.53516C28.9183 2.53516 32.5 6.11688 32.5 10.5352C32.5 13.1247 31.2697 15.4268 29.3616 16.889L30.4913 25.4035C30.5418 25.7841 30.3699 26.1601 30.049 26.3709C29.728 26.5817 29.3148 26.5901 28.9855 26.3925L24.5 23.7012L20.0145 26.3925C19.6852 26.5901 19.2719 26.5817 18.951 26.3708C18.63 26.16 18.4581 25.784 18.5087 25.4034L19.6395 16.8898Z" fill="#A3A3A3"/>
<path d="M18.1133 34.6016C18.1133 36.0781 19.0625 37.3906 20.6562 37.9062L20.0469 38.7734C18.8926 38.3574 18.043 37.5488 17.5859 36.5C17.1289 37.7012 16.2148 38.6328 14.9492 39.0898L14.3516 38.1992C16.0273 37.625 17 36.2305 17.0117 34.6484V33.6172H18.1133V34.6016ZM23.1406 33.0312V39.2305H22.0273V36.0781H19.8125V35.1641H22.0273V33.0312H23.1406ZM19.625 39.5234C21.8281 39.5234 23.1758 40.25 23.1758 41.5273C23.1758 42.793 21.8281 43.5195 19.625 43.5078C17.4219 43.5195 16.0625 42.793 16.0742 41.5273C16.0625 40.25 17.4219 39.5234 19.625 39.5234ZM19.625 40.3906C18.0898 40.3906 17.1758 40.8008 17.1758 41.5273C17.1758 42.2305 18.0898 42.6289 19.625 42.6289C21.1602 42.6289 22.0742 42.2305 22.0742 41.5273C22.0742 40.8008 21.1602 40.3906 19.625 40.3906ZM28.8125 35.0586C28.8125 36.0547 29.75 36.9102 31.2852 37.2383L30.8281 38.1055C29.6211 37.8359 28.7363 37.2324 28.2734 36.4297C27.8223 37.3027 26.9199 37.959 25.6719 38.2461L25.2031 37.3789C26.75 37.0508 27.6992 36.1016 27.6992 35.0586H25.4375V34.1797H27.6992V33.0547H28.8125V34.1797H31.0625V35.0586H28.8125ZM33.4883 33.043V43.5312H32.3867V33.043H33.4883ZM24.7461 38.8906C26.7383 38.8906 29.375 38.8789 31.6602 38.5859L31.7422 39.3945C30.7812 39.5527 29.791 39.6523 28.8242 39.7109V43.2148H27.7109V39.7695C26.7031 39.8105 25.7422 39.8164 24.8984 39.8164L24.7461 38.8906Z" fill="#A3A3A3"/>
</svg>
