<svg width="49" height="49" viewBox="0 0 49 49" fill="none" xmlns="http://www.w3.org/2000/svg">
<path fill-rule="evenodd" clip-rule="evenodd" d="M18.0859 10.7363C18.0859 7.42262 20.7722 4.73633 24.0859 4.73633C27.3996 4.73633 30.0859 7.42262 30.0859 10.7363C30.0859 12.8175 29.0264 14.6511 27.4173 15.7273C27.3596 15.757 27.3055 15.7921 27.2554 15.8319C26.3357 16.4051 25.2495 16.7363 24.0859 16.7363C20.7722 16.7363 18.0859 14.05 18.0859 10.7363ZM27.0721 18.1604C26.1494 18.5319 25.1415 18.7363 24.0859 18.7363C23.0307 18.7363 22.0233 18.532 21.1009 18.1608L20.3504 23.8114L23.5714 21.8787C23.8881 21.6887 24.2838 21.6887 24.6004 21.8787L27.8218 23.8116L27.0721 18.1604ZM19.2254 17.091C17.3168 15.6289 16.0859 13.3264 16.0859 10.7363C16.0859 6.31805 19.6677 2.73633 24.0859 2.73633C28.5042 2.73633 32.0859 6.31805 32.0859 10.7363C32.0859 13.3259 30.8556 15.628 28.9476 17.0901L30.0773 25.6047C30.1278 25.9853 29.9559 26.3613 29.6349 26.572C29.314 26.7828 28.9007 26.7913 28.5714 26.5937L24.0859 23.9024L19.6004 26.5937C19.2712 26.7913 18.8578 26.7828 18.5369 26.572C18.216 26.3612 18.0441 25.9852 18.0946 25.6045L19.2254 17.091Z" fill="black"/>
<path d="M17.9336 34.6035C17.9219 36.0332 18.6602 37.3457 20.3711 37.873L19.5859 39.0449C18.4375 38.6465 17.6582 37.9082 17.2188 36.9473C16.7383 38.0605 15.877 38.9395 14.5938 39.373L13.8086 38.1777C15.6367 37.5918 16.4102 36.1621 16.4219 34.6738V33.7012H17.9336V34.6035ZM22.8906 33.1504V39.3965H21.4023V36.3262H19.3984V35.1074H21.4023V33.1504H22.8906ZM19.2461 39.6777C21.5195 39.6777 22.9141 40.4395 22.9258 41.752C22.9141 43.0645 21.5195 43.8145 19.2461 43.8145C16.9727 43.8145 15.5781 43.0645 15.5781 41.752C15.5781 40.4395 16.9727 39.6777 19.2461 39.6777ZM19.2461 40.8379C17.8281 40.8379 17.0664 41.1426 17.0664 41.752C17.0664 42.3379 17.8281 42.6543 19.2461 42.6543C20.6641 42.6543 21.4375 42.3379 21.4375 41.752C21.4375 41.1426 20.6641 40.8379 19.2461 40.8379ZM30.6836 34.2168V35.377H28.5742C28.6035 36.2148 29.3594 36.9883 30.9414 37.2754L30.3555 38.4238C29.1484 38.1895 28.3164 37.6562 27.8477 36.9355C27.373 37.7266 26.5234 38.3242 25.2695 38.5762L24.6602 37.416C26.2715 37.1172 27.0215 36.2793 27.0625 35.377H24.9414V34.2168H27.0742V33.1738H28.5742V34.2168H30.6836ZM33.2617 33.1621V43.8145H31.7852V33.1621H33.2617ZM24.2969 39.0332C26.2656 39.0332 28.8906 39.0215 31.1406 38.7285L31.2344 39.8066C30.3555 39.959 29.4531 40.0645 28.5625 40.123V43.4863H27.0742V40.2051C26.1484 40.2402 25.2637 40.2461 24.4844 40.2402L24.2969 39.0332Z" fill="black"/>
</svg>
