<svg width="49" height="49" viewBox="0 0 49 49" fill="none" xmlns="http://www.w3.org/2000/svg">
<path d="M33.0859 17.7363C33.0859 18.2668 32.8752 18.7755 32.5002 19.1505C32.1251 19.5256 31.6164 19.7363 31.0859 19.7363H19.0859L15.0859 23.7363V7.73633C15.0859 7.2059 15.2967 6.69719 15.6717 6.32211C16.0468 5.94704 16.5555 5.73633 17.0859 5.73633H31.0859C31.6164 5.73633 32.1251 5.94704 32.5002 6.32211C32.8752 6.69719 33.0859 7.2059 33.0859 7.73633V17.7363Z" stroke="#A3A3A3" stroke-width="2" stroke-linecap="round" stroke-linejoin="round"/>
<path d="M8.82812 34.2988C8.81641 37.3926 7.80859 40.1465 4.08203 42.0449L3.46094 41.2012C5.30078 40.2578 6.4375 39.127 7.07031 37.791L3.67188 38.1191L3.49609 37.1582L7.42188 36.9121C7.58008 36.373 7.67969 35.7988 7.72656 35.2012H4.03516V34.2988H8.82812ZM12.2148 33.2324V43.7324H11.1133V38.3066H8.80469V37.3926H11.1133V33.2324H12.2148ZM23.4414 39.2324V40.1465H21.0859V43.791H19.9727V40.1465H17.3359V43.791H16.2227V40.1465H13.832V39.2324H23.4414ZM22.2344 33.7832V37.9199H15.0391V33.7832H22.2344ZM16.1289 34.6738V37.0293H21.1211V34.6738H16.1289ZM32.9336 33.2324V43.7324H31.8203V33.2324H32.9336ZM25.9609 34.252V40.0996C27.4902 40.0879 29.1016 39.9648 30.7891 39.6191L30.9414 40.5566C29.0781 40.9316 27.3906 41.0605 25.7383 41.0605H24.8594V34.252H25.9609ZM40.4219 34.1582V35.0723H36.332V37.0996H40.0234V37.9902H36.332V40.3457C38.1719 40.3398 39.4961 40.2637 41.0547 40.0176L41.1719 40.9199C39.5078 41.1895 38.0664 41.248 36.0859 41.248H35.2305V34.1582H40.4219ZM43.3164 33.2324V43.7324H42.1914V33.2324H43.3164Z" fill="#A3A3A3"/>
</svg>
