<svg width="49" height="49" viewBox="0 0 49 49" fill="none" xmlns="http://www.w3.org/2000/svg">
<path d="M33.5859 17.7363C33.5859 18.2668 33.3752 18.7755 33.0002 19.1505C32.6251 19.5256 32.1164 19.7363 31.5859 19.7363H19.5859L15.5859 23.7363V7.73633C15.5859 7.2059 15.7967 6.69719 16.1717 6.32211C16.5468 5.94704 17.0555 5.73633 17.5859 5.73633H31.5859C32.1164 5.73633 32.6251 5.94704 33.0002 6.32211C33.3752 6.69719 33.5859 7.2059 33.5859 7.73633V17.7363Z" stroke="black" stroke-width="2" stroke-linecap="round" stroke-linejoin="round"/>
<path d="M9.375 34.1699C9.36328 37.4512 8.48438 40.2051 4.64062 42.1973L3.82031 41.0723C5.50781 40.1816 6.55664 39.1914 7.17188 38.0137L4.07812 38.2949L3.87891 37.0293L7.64062 36.8066C7.76367 36.3555 7.83984 35.875 7.88672 35.3652H4.45312V34.1699H9.375ZM12.8906 33.1504V43.8145H11.4023V38.4707H9.35156V37.252H11.4023V33.1504H12.8906ZM24.0234 39.1035V40.2988H21.8203V43.8379H20.3203V40.2988H18.0234V43.8379H16.5234V40.2988H14.2617V39.1035H24.0234ZM22.8516 33.6543V37.9551H15.4102V33.6543H22.8516ZM16.8867 34.8379V36.7598H21.3633V34.8379H16.8867ZM33.6094 33.1504V43.8145H32.1211V33.1504H33.6094ZM26.6953 34.1699V39.9004C28.1367 39.8828 29.6836 39.748 31.2539 39.4434L31.4414 40.6738C29.5664 41.0605 27.8086 41.1895 26.1562 41.1777H25.2188V34.1699H26.6953ZM41.0273 34.0293V35.248H37.0781V37.0059H40.582V38.1777H37.0781V40.1934C38.7129 40.1816 40.0195 40.123 41.5078 39.8887L41.6484 41.0957C39.9727 41.3418 38.4375 41.3887 36.5156 41.3887H35.6016V34.0293H41.0273ZM43.9805 33.1504V43.8145H42.4688V33.1504H43.9805Z" fill="black"/>
</svg>
