<svg width="49" height="49" viewBox="0 0 49 49" fill="none" xmlns="http://www.w3.org/2000/svg">
<path fill-rule="evenodd" clip-rule="evenodd" d="M25.1137 2.83662C24.7526 2.55576 24.2469 2.55576 23.8858 2.83662L14.0677 10.4729C13.8241 10.6624 13.6816 10.9537 13.6816 11.2623V23.2622C13.6816 24.1061 14.0169 24.9154 14.6136 25.5121C15.2103 26.1088 16.0196 26.444 16.8634 26.444H21.2271H27.7725H32.1361C32.98 26.444 33.7893 26.1088 34.386 25.5121C34.9827 24.9154 35.3179 24.1061 35.3179 23.2622V11.2623C35.3179 10.9537 35.1754 10.6624 34.9318 10.4729L25.1137 2.83662ZM28.7725 24.444H32.1361C32.4495 24.444 32.7501 24.3195 32.9718 24.0979C33.1934 23.8763 33.3179 23.5757 33.3179 23.2622V11.7514L24.4998 4.89284L15.6816 11.7514V23.2622C15.6816 23.5757 15.8062 23.8763 16.0278 24.0979C16.2494 24.3195 16.55 24.444 16.8634 24.444H20.2271V14.535C20.2271 13.9827 20.6748 13.535 21.2271 13.535H27.7725C28.3248 13.535 28.7725 13.9827 28.7725 14.535V24.444ZM22.2271 24.444V15.535H26.7725V24.444H22.2271Z" fill="black"/>
<path d="M27.8828 40.2764V43.4053H20.4414V40.2764H27.8828ZM21.918 41.3896V42.292H26.418V41.3896H21.918ZM28.5391 33.6201V34.7451H19.7852V33.6201H23.4297V32.7646H24.9297V33.6201H28.5391ZM24.1797 35.0146C26.4883 35.0264 27.7656 35.5303 27.7656 36.5381C27.7656 37.4287 26.7637 37.9385 24.9297 38.0381V38.5654H29.043V39.7373H19.3164V38.5654H23.4297V38.0381C21.6016 37.9385 20.582 37.4287 20.5938 36.5381C20.582 35.5303 21.8828 35.0264 24.1797 35.0146ZM24.1797 36.0225C22.832 36.0225 22.1875 36.1631 22.1875 36.5381C22.1875 36.9014 22.832 37.0537 24.1797 37.0537C25.5391 37.0537 26.1602 36.9014 26.1602 36.5381C26.1602 36.1631 25.5391 36.0225 24.1797 36.0225Z" fill="black"/>
</svg>
