<svg width="49" height="49" viewBox="0 0 49 49" fill="none" xmlns="http://www.w3.org/2000/svg">
<path fill-rule="evenodd" clip-rule="evenodd" d="M25.1996 3.0378C24.8385 2.75693 24.3329 2.75693 23.9718 3.0378L14.1536 10.6741C13.9101 10.8636 13.7676 11.1549 13.7676 11.4635V23.4634C13.7676 24.3073 14.1028 25.1166 14.6995 25.7133C15.2962 26.31 16.1055 26.6452 16.9494 26.6452H21.313H27.8584H32.222C33.0659 26.6452 33.8752 26.31 34.4719 25.7133C35.0686 25.1166 35.4038 24.3073 35.4038 23.4634V11.4635C35.4038 11.1549 35.2614 10.8636 35.0178 10.6741L25.1996 3.0378ZM28.8584 24.6452H32.222C32.5355 24.6452 32.8361 24.5207 33.0577 24.2991C33.2793 24.0774 33.4038 23.7768 33.4038 23.4634V11.9526L24.5857 5.09401L15.7676 11.9526V23.4634C15.7676 23.7768 15.8921 24.0774 16.1137 24.2991C16.3354 24.5207 16.636 24.6452 16.9494 24.6452H20.313V14.7362C20.313 14.1839 20.7607 13.7362 21.313 13.7362H27.8584C28.4107 13.7362 28.8584 14.1839 28.8584 14.7362V24.6452ZM22.313 24.6452V15.7362H26.8584V24.6452H22.313Z" fill="#A3A3A3"/>
<path d="M27.875 40.4775V43.5127H20.6211V40.4775H27.875ZM21.7227 41.333V42.6572H26.7969V41.333H21.7227ZM28.5078 33.9736V34.8291H19.9648V33.9736H23.7031V33.001H24.8164V33.9736H28.5078ZM24.2539 35.2041C26.4688 35.2041 27.6992 35.708 27.6992 36.6924C27.6992 37.5889 26.6738 38.0869 24.8164 38.1689V38.8838H29.0469V39.7627H19.4727V38.8838H23.7031V38.1689C21.8457 38.0869 20.7969 37.5889 20.8086 36.6924C20.7969 35.708 22.0508 35.2041 24.2539 35.2041ZM24.2539 35.9658C22.7891 35.9775 21.9922 36.2119 21.9922 36.6924C21.9922 37.1611 22.7891 37.4189 24.2539 37.4189C25.7305 37.4189 26.5156 37.1611 26.5156 36.6924C26.5156 36.2119 25.7305 35.9775 24.2539 35.9658Z" fill="#A3A3A3"/>
</svg>
