<svg width="49" height="49" viewBox="0 0 49 49" fill="none" xmlns="http://www.w3.org/2000/svg">
<path d="M32.5 24.4121V22.4121C32.5 21.3512 32.0786 20.3338 31.3284 19.5837C30.5783 18.8335 29.5609 18.4121 28.5 18.4121H20.5C19.4391 18.4121 18.4217 18.8335 17.6716 19.5837C16.9214 20.3338 16.5 21.3512 16.5 22.4121V24.4121" stroke="black" stroke-width="2" stroke-linecap="round" stroke-linejoin="round"/>
<path d="M24.5 14.4121C26.7091 14.4121 28.5 12.6212 28.5 10.4121C28.5 8.20297 26.7091 6.41211 24.5 6.41211C22.2909 6.41211 20.5 8.20297 20.5 10.4121C20.5 12.6212 22.2909 14.4121 24.5 14.4121Z" stroke="black" stroke-width="2" stroke-linecap="round" stroke-linejoin="round"/>
<path d="M18.0156 33.8262V44.4902H16.5742V39.1582H15.5781V43.9746H14.1719V34.002H15.5781V37.9512H16.5742V33.8262H18.0156ZM9.25 41.8887V35.0098H10.75V40.582C11.6055 40.5586 12.5488 40.4824 13.5742 40.2832L13.7266 41.5723C12.2969 41.8184 11.0781 41.8945 9.97656 41.8887H9.25ZM28.1758 33.8262V40.1543H26.6875V37.6348H25.0234V36.4277H26.6875V33.8262H28.1758ZM19.1172 38.9824C20.8633 38.3965 21.6602 37.002 21.6953 35.666H19.5508V34.4707H25.3398V35.666H23.2188C23.248 36.9082 24.0098 38.1621 25.668 38.7129L24.9297 39.8848C23.7578 39.5039 22.9434 38.7305 22.4805 37.7754C22.0117 38.8594 21.1562 39.7324 19.8906 40.166L19.1172 38.9824ZM20.8633 42.4512C20.8633 41.1562 22.2578 40.3945 24.5312 40.3887C26.8105 40.3945 28.2051 41.1562 28.2109 42.4512C28.2051 43.7461 26.8105 44.502 24.5312 44.502C22.2578 44.502 20.8633 43.7461 20.8633 42.4512ZM22.3516 42.4512C22.3516 43.0605 23.1191 43.3652 24.5312 43.3652C25.9492 43.3652 26.7168 43.0605 26.7227 42.4512C26.7168 41.8359 25.9492 41.5312 24.5312 41.5371C23.1191 41.5312 22.3516 41.8359 22.3516 42.4512ZM39.3203 42.0293V43.248H29.5586V42.0293H33.6719V40.0605H30.5898V34.5059H32.0898V36.1582H36.7422V34.5059H38.2305V40.0605H35.1602V42.0293H39.3203ZM32.0898 38.8652H36.7422V37.3535H32.0898V38.8652Z" fill="black"/>
</svg>
