<svg width="49" height="49" viewBox="0 0 49 49" fill="none" xmlns="http://www.w3.org/2000/svg">
<path d="M32.0859 23.7363V21.7363C32.0859 20.6755 31.6645 19.658 30.9144 18.9079C30.1642 18.1578 29.1468 17.7363 28.0859 17.7363H20.0859C19.0251 17.7363 18.0077 18.1578 17.2575 18.9079C16.5074 19.658 16.0859 20.6755 16.0859 21.7363V23.7363" stroke="#A3A3A3" stroke-width="2" stroke-linecap="round" stroke-linejoin="round"/>
<path d="M24.0859 13.7363C26.2951 13.7363 28.0859 11.9455 28.0859 9.73633C28.0859 7.52719 26.2951 5.73633 24.0859 5.73633C21.8768 5.73633 20.0859 7.52719 20.0859 9.73633C20.0859 11.9455 21.8768 13.7363 24.0859 13.7363Z" stroke="#A3A3A3" stroke-width="2" stroke-linecap="round" stroke-linejoin="round"/>
<path d="M17.4609 33.2324V43.7324H16.3945V38.3535H15.0469V43.1934H14.0039V33.4434H15.0469V37.4395H16.3945V33.2324H17.4609ZM10.0781 34.4746V40.0762C11.0508 40.0703 12.1113 39.9941 13.3008 39.7598L13.418 40.7324C11.9766 40.9902 10.7695 41.0605 9.64453 41.0605H8.96484V34.4746H10.0781ZM27.5977 33.2324V39.4785H26.4844V36.8184H24.5273V35.9043H26.4844V33.2324H27.5977ZM24.082 39.7715C26.2852 39.7715 27.6328 40.498 27.6328 41.752C27.6328 43.0059 26.2852 43.7207 24.082 43.7324C21.8789 43.7207 20.5195 43.0059 20.5312 41.752C20.5195 40.498 21.8789 39.7715 24.082 39.7715ZM24.082 40.6387C22.5469 40.6387 21.6328 41.0371 21.6328 41.752C21.6328 42.4551 22.5469 42.8652 24.082 42.8535C25.6172 42.8652 26.5312 42.4551 26.5312 41.752C26.5312 41.0371 25.6172 40.6387 24.082 40.6387ZM22.6055 35.084C22.6055 36.4199 23.5547 37.709 25.1367 38.248L24.5625 39.127C23.3848 38.7168 22.5176 37.8789 22.0664 36.8418C21.6035 38.0195 20.6836 38.9629 19.4297 39.4199L18.8438 38.5293C20.4727 37.9668 21.4688 36.5488 21.4688 35.0957V34.8613H19.1953V33.959H24.8555V34.8613H22.6055V35.084ZM38.8242 41.5059V42.4316H29.2148V41.5059H33.4453V39.3496H30.3164V33.9473H31.4297V35.752H36.5859V33.9473H37.6875V39.3496H34.5469V41.5059H38.8242ZM31.4297 38.4473H36.5859V36.6543H31.4297V38.4473Z" fill="#A3A3A3"/>
</svg>
