<svg width="19" height="25" viewBox="0 0 19 25" fill="none" xmlns="http://www.w3.org/2000/svg">
<path id="Union" fill-rule="evenodd" clip-rule="evenodd" d="M9.1485 0.535156C6.1353 2.96691 0.108912 9.374 0.108873 15.5484H0.108826C0.108826 16.7285 0.341957 17.8971 0.79491 18.9874C1.24786 20.0777 1.91177 21.0684 2.74871 21.9029C3.58566 22.7374 4.57926 23.3993 5.67279 23.851C6.76631 24.3026 7.93834 24.535 9.12197 24.535V24.5281C9.13964 24.5277 9.1573 24.5272 9.17494 24.5266V24.535C10.3586 24.535 11.5306 24.3026 12.6241 23.851C13.7176 23.3993 14.7112 22.7374 15.5482 21.9029C16.3851 21.0684 17.049 20.0777 17.502 18.9874C17.9549 17.8971 18.1881 16.7285 18.1881 15.5484H18.1881C18.1881 9.37404 12.1617 2.96692 9.1485 0.535156Z" fill="#CFDEA6"/>
</svg>
